<?xml version="1.0" encoding="utf-8" standalone="no"?>
<!DOCTYPE svg PUBLIC "-//W3C//DTD SVG 1.1//EN"
  "http://www.w3.org/Graphics/SVG/1.1/DTD/svg11.dtd">
<!-- Created with matplotlib (https://matplotlib.org/) -->
<svg height="720pt" version="1.1" viewBox="0 0 1440 720" width="1440pt" xmlns="http://www.w3.org/2000/svg" xmlns:xlink="http://www.w3.org/1999/xlink">
 <defs>
  <style type="text/css">
*{stroke-linecap:butt;stroke-linejoin:round;}
  </style>
 </defs>
 <g id="figure_1">
  <g id="patch_1">
   <path d="M 0 720 
L 1440 720 
L 1440 0 
L 0 0 
z
" style="fill:#ffffff;"/>
  </g>
  <g id="axes_1">
   <g id="patch_2">
    <path d="M 180 630 
L 1296 630 
L 1296 86.4 
L 180 86.4 
z
" style="fill:#ffffff;"/>
   </g>
   <g id="matplotlib.axis_1">
    <g id="xtick_1">
     <g id="line2d_1">
      <defs>
       <path d="M 0 0 
L 0 3.5 
" id="m6ebc16393c" style="stroke:#000000;stroke-width:0.8;"/>
      </defs>
      <g>
       <use style="stroke:#000000;stroke-width:0.8;" x="230.727273" xlink:href="#m6ebc16393c" y="630"/>
      </g>
     </g>
     <g id="text_1">
      <!-- 0 -->
      <defs>
       <path d="M 31.78125 66.40625 
Q 24.171875 66.40625 20.328125 58.90625 
Q 16.5 51.421875 16.5 36.375 
Q 16.5 21.390625 20.328125 13.890625 
Q 24.171875 6.390625 31.78125 6.390625 
Q 39.453125 6.390625 43.28125 13.890625 
Q 47.125 21.390625 47.125 36.375 
Q 47.125 51.421875 43.28125 58.90625 
Q 39.453125 66.40625 31.78125 66.40625 
z
M 31.78125 74.21875 
Q 44.046875 74.21875 50.515625 64.515625 
Q 56.984375 54.828125 56.984375 36.375 
Q 56.984375 17.96875 50.515625 8.265625 
Q 44.046875 -1.421875 31.78125 -1.421875 
Q 19.53125 -1.421875 13.0625 8.265625 
Q 6.59375 17.96875 6.59375 36.375 
Q 6.59375 54.828125 13.0625 64.515625 
Q 19.53125 74.21875 31.78125 74.21875 
z
" id="DejaVuSans-48"/>
      </defs>
      <g transform="translate(227.546023 644.598438)scale(0.1 -0.1)">
       <use xlink:href="#DejaVuSans-48"/>
      </g>
     </g>
    </g>
    <g id="xtick_2">
     <g id="line2d_2">
      <g>
       <use style="stroke:#000000;stroke-width:0.8;" x="435.68595" xlink:href="#m6ebc16393c" y="630"/>
      </g>
     </g>
     <g id="text_2">
      <!-- 20 -->
      <defs>
       <path d="M 19.1875 8.296875 
L 53.609375 8.296875 
L 53.609375 0 
L 7.328125 0 
L 7.328125 8.296875 
Q 12.9375 14.109375 22.625 23.890625 
Q 32.328125 33.6875 34.8125 36.53125 
Q 39.546875 41.84375 41.421875 45.53125 
Q 43.3125 49.21875 43.3125 52.78125 
Q 43.3125 58.59375 39.234375 62.25 
Q 35.15625 65.921875 28.609375 65.921875 
Q 23.96875 65.921875 18.8125 64.3125 
Q 13.671875 62.703125 7.8125 59.421875 
L 7.8125 69.390625 
Q 13.765625 71.78125 18.9375 73 
Q 24.125 74.21875 28.421875 74.21875 
Q 39.75 74.21875 46.484375 68.546875 
Q 53.21875 62.890625 53.21875 53.421875 
Q 53.21875 48.921875 51.53125 44.890625 
Q 49.859375 40.875 45.40625 35.40625 
Q 44.1875 33.984375 37.640625 27.21875 
Q 31.109375 20.453125 19.1875 8.296875 
z
" id="DejaVuSans-50"/>
      </defs>
      <g transform="translate(429.32345 644.598438)scale(0.1 -0.1)">
       <use xlink:href="#DejaVuSans-50"/>
       <use x="63.623047" xlink:href="#DejaVuSans-48"/>
      </g>
     </g>
    </g>
    <g id="xtick_3">
     <g id="line2d_3">
      <g>
       <use style="stroke:#000000;stroke-width:0.8;" x="640.644628" xlink:href="#m6ebc16393c" y="630"/>
      </g>
     </g>
     <g id="text_3">
      <!-- 40 -->
      <defs>
       <path d="M 37.796875 64.3125 
L 12.890625 25.390625 
L 37.796875 25.390625 
z
M 35.203125 72.90625 
L 47.609375 72.90625 
L 47.609375 25.390625 
L 58.015625 25.390625 
L 58.015625 17.1875 
L 47.609375 17.1875 
L 47.609375 0 
L 37.796875 0 
L 37.796875 17.1875 
L 4.890625 17.1875 
L 4.890625 26.703125 
z
" id="DejaVuSans-52"/>
      </defs>
      <g transform="translate(634.282128 644.598438)scale(0.1 -0.1)">
       <use xlink:href="#DejaVuSans-52"/>
       <use x="63.623047" xlink:href="#DejaVuSans-48"/>
      </g>
     </g>
    </g>
    <g id="xtick_4">
     <g id="line2d_4">
      <g>
       <use style="stroke:#000000;stroke-width:0.8;" x="845.603306" xlink:href="#m6ebc16393c" y="630"/>
      </g>
     </g>
     <g id="text_4">
      <!-- 60 -->
      <defs>
       <path d="M 33.015625 40.375 
Q 26.375 40.375 22.484375 35.828125 
Q 18.609375 31.296875 18.609375 23.390625 
Q 18.609375 15.53125 22.484375 10.953125 
Q 26.375 6.390625 33.015625 6.390625 
Q 39.65625 6.390625 43.53125 10.953125 
Q 47.40625 15.53125 47.40625 23.390625 
Q 47.40625 31.296875 43.53125 35.828125 
Q 39.65625 40.375 33.015625 40.375 
z
M 52.59375 71.296875 
L 52.59375 62.3125 
Q 48.875 64.0625 45.09375 64.984375 
Q 41.3125 65.921875 37.59375 65.921875 
Q 27.828125 65.921875 22.671875 59.328125 
Q 17.53125 52.734375 16.796875 39.40625 
Q 19.671875 43.65625 24.015625 45.921875 
Q 28.375 48.1875 33.59375 48.1875 
Q 44.578125 48.1875 50.953125 41.515625 
Q 57.328125 34.859375 57.328125 23.390625 
Q 57.328125 12.15625 50.6875 5.359375 
Q 44.046875 -1.421875 33.015625 -1.421875 
Q 20.359375 -1.421875 13.671875 8.265625 
Q 6.984375 17.96875 6.984375 36.375 
Q 6.984375 53.65625 15.1875 63.9375 
Q 23.390625 74.21875 37.203125 74.21875 
Q 40.921875 74.21875 44.703125 73.484375 
Q 48.484375 72.75 52.59375 71.296875 
z
" id="DejaVuSans-54"/>
      </defs>
      <g transform="translate(839.240806 644.598438)scale(0.1 -0.1)">
       <use xlink:href="#DejaVuSans-54"/>
       <use x="63.623047" xlink:href="#DejaVuSans-48"/>
      </g>
     </g>
    </g>
    <g id="xtick_5">
     <g id="line2d_5">
      <g>
       <use style="stroke:#000000;stroke-width:0.8;" x="1050.561983" xlink:href="#m6ebc16393c" y="630"/>
      </g>
     </g>
     <g id="text_5">
      <!-- 80 -->
      <defs>
       <path d="M 31.78125 34.625 
Q 24.75 34.625 20.71875 30.859375 
Q 16.703125 27.09375 16.703125 20.515625 
Q 16.703125 13.921875 20.71875 10.15625 
Q 24.75 6.390625 31.78125 6.390625 
Q 38.8125 6.390625 42.859375 10.171875 
Q 46.921875 13.96875 46.921875 20.515625 
Q 46.921875 27.09375 42.890625 30.859375 
Q 38.875 34.625 31.78125 34.625 
z
M 21.921875 38.8125 
Q 15.578125 40.375 12.03125 44.71875 
Q 8.5 49.078125 8.5 55.328125 
Q 8.5 64.0625 14.71875 69.140625 
Q 20.953125 74.21875 31.78125 74.21875 
Q 42.671875 74.21875 48.875 69.140625 
Q 55.078125 64.0625 55.078125 55.328125 
Q 55.078125 49.078125 51.53125 44.71875 
Q 48 40.375 41.703125 38.8125 
Q 48.828125 37.15625 52.796875 32.3125 
Q 56.78125 27.484375 56.78125 20.515625 
Q 56.78125 9.90625 50.3125 4.234375 
Q 43.84375 -1.421875 31.78125 -1.421875 
Q 19.734375 -1.421875 13.25 4.234375 
Q 6.78125 9.90625 6.78125 20.515625 
Q 6.78125 27.484375 10.78125 32.3125 
Q 14.796875 37.15625 21.921875 38.8125 
z
M 18.3125 54.390625 
Q 18.3125 48.734375 21.84375 45.5625 
Q 25.390625 42.390625 31.78125 42.390625 
Q 38.140625 42.390625 41.71875 45.5625 
Q 45.3125 48.734375 45.3125 54.390625 
Q 45.3125 60.0625 41.71875 63.234375 
Q 38.140625 66.40625 31.78125 66.40625 
Q 25.390625 66.40625 21.84375 63.234375 
Q 18.3125 60.0625 18.3125 54.390625 
z
" id="DejaVuSans-56"/>
      </defs>
      <g transform="translate(1044.199483 644.598438)scale(0.1 -0.1)">
       <use xlink:href="#DejaVuSans-56"/>
       <use x="63.623047" xlink:href="#DejaVuSans-48"/>
      </g>
     </g>
    </g>
    <g id="xtick_6">
     <g id="line2d_6">
      <g>
       <use style="stroke:#000000;stroke-width:0.8;" x="1255.520661" xlink:href="#m6ebc16393c" y="630"/>
      </g>
     </g>
     <g id="text_6">
      <!-- 100 -->
      <defs>
       <path d="M 12.40625 8.296875 
L 28.515625 8.296875 
L 28.515625 63.921875 
L 10.984375 60.40625 
L 10.984375 69.390625 
L 28.421875 72.90625 
L 38.28125 72.90625 
L 38.28125 8.296875 
L 54.390625 8.296875 
L 54.390625 0 
L 12.40625 0 
z
" id="DejaVuSans-49"/>
      </defs>
      <g transform="translate(1245.976911 644.598438)scale(0.1 -0.1)">
       <use xlink:href="#DejaVuSans-49"/>
       <use x="63.623047" xlink:href="#DejaVuSans-48"/>
       <use x="127.246094" xlink:href="#DejaVuSans-48"/>
      </g>
     </g>
    </g>
   </g>
   <g id="matplotlib.axis_2">
    <g id="ytick_1">
     <g id="line2d_7">
      <defs>
       <path d="M 0 0 
L -3.5 0 
" id="mca5ec04b98" style="stroke:#000000;stroke-width:0.8;"/>
      </defs>
      <g>
       <use style="stroke:#000000;stroke-width:0.8;" x="180" xlink:href="#mca5ec04b98" y="605.308545"/>
      </g>
     </g>
     <g id="text_7">
      <!-- 0.0 -->
      <defs>
       <path d="M 10.6875 12.40625 
L 21 12.40625 
L 21 0 
L 10.6875 0 
z
" id="DejaVuSans-46"/>
      </defs>
      <g transform="translate(157.096875 609.107764)scale(0.1 -0.1)">
       <use xlink:href="#DejaVuSans-48"/>
       <use x="63.623047" xlink:href="#DejaVuSans-46"/>
       <use x="95.410156" xlink:href="#DejaVuSans-48"/>
      </g>
     </g>
    </g>
    <g id="ytick_2">
     <g id="line2d_8">
      <g>
       <use style="stroke:#000000;stroke-width:0.8;" x="180" xlink:href="#mca5ec04b98" y="523.510905"/>
      </g>
     </g>
     <g id="text_8">
      <!-- 0.2 -->
      <g transform="translate(157.096875 527.310124)scale(0.1 -0.1)">
       <use xlink:href="#DejaVuSans-48"/>
       <use x="63.623047" xlink:href="#DejaVuSans-46"/>
       <use x="95.410156" xlink:href="#DejaVuSans-50"/>
      </g>
     </g>
    </g>
    <g id="ytick_3">
     <g id="line2d_9">
      <g>
       <use style="stroke:#000000;stroke-width:0.8;" x="180" xlink:href="#mca5ec04b98" y="441.713265"/>
      </g>
     </g>
     <g id="text_9">
      <!-- 0.4 -->
      <g transform="translate(157.096875 445.512484)scale(0.1 -0.1)">
       <use xlink:href="#DejaVuSans-48"/>
       <use x="63.623047" xlink:href="#DejaVuSans-46"/>
       <use x="95.410156" xlink:href="#DejaVuSans-52"/>
      </g>
     </g>
    </g>
    <g id="ytick_4">
     <g id="line2d_10">
      <g>
       <use style="stroke:#000000;stroke-width:0.8;" x="180" xlink:href="#mca5ec04b98" y="359.915625"/>
      </g>
     </g>
     <g id="text_10">
      <!-- 0.6 -->
      <g transform="translate(157.096875 363.714844)scale(0.1 -0.1)">
       <use xlink:href="#DejaVuSans-48"/>
       <use x="63.623047" xlink:href="#DejaVuSans-46"/>
       <use x="95.410156" xlink:href="#DejaVuSans-54"/>
      </g>
     </g>
    </g>
    <g id="ytick_5">
     <g id="line2d_11">
      <g>
       <use style="stroke:#000000;stroke-width:0.8;" x="180" xlink:href="#mca5ec04b98" y="278.117985"/>
      </g>
     </g>
     <g id="text_11">
      <!-- 0.8 -->
      <g transform="translate(157.096875 281.917204)scale(0.1 -0.1)">
       <use xlink:href="#DejaVuSans-48"/>
       <use x="63.623047" xlink:href="#DejaVuSans-46"/>
       <use x="95.410156" xlink:href="#DejaVuSans-56"/>
      </g>
     </g>
    </g>
    <g id="ytick_6">
     <g id="line2d_12">
      <g>
       <use style="stroke:#000000;stroke-width:0.8;" x="180" xlink:href="#mca5ec04b98" y="196.320345"/>
      </g>
     </g>
     <g id="text_12">
      <!-- 1.0 -->
      <g transform="translate(157.096875 200.119564)scale(0.1 -0.1)">
       <use xlink:href="#DejaVuSans-49"/>
       <use x="63.623047" xlink:href="#DejaVuSans-46"/>
       <use x="95.410156" xlink:href="#DejaVuSans-48"/>
      </g>
     </g>
    </g>
    <g id="ytick_7">
     <g id="line2d_13">
      <g>
       <use style="stroke:#000000;stroke-width:0.8;" x="180" xlink:href="#mca5ec04b98" y="114.522705"/>
      </g>
     </g>
     <g id="text_13">
      <!-- 1.2 -->
      <g transform="translate(157.096875 118.321924)scale(0.1 -0.1)">
       <use xlink:href="#DejaVuSans-49"/>
       <use x="63.623047" xlink:href="#DejaVuSans-46"/>
       <use x="95.410156" xlink:href="#DejaVuSans-50"/>
      </g>
     </g>
    </g>
   </g>
   <g id="line2d_14">
    <path clip-path="url(#pf245aebb97)" d="M 230.727273 360.700891 
L 240.975207 493.989519 
L 251.22314 423.222173 
L 261.471074 566.316409 
L 271.719008 554.108737 
L 281.966942 565.590048 
L 292.214876 574.225449 
L 302.46281 569.613406 
L 312.710744 585.194705 
L 322.958678 578.070631 
L 333.206612 591.636046 
L 343.454545 600.645216 
L 353.702479 592.979553 
L 363.950413 600.849695 
L 374.198347 601.667175 
L 384.446281 601.247995 
L 394.694215 596.238582 
L 404.942149 599.517507 
L 415.190083 599.513366 
L 425.438017 598.593026 
L 435.68595 602.658506 
L 445.933884 600.408402 
L 456.181818 598.498556 
L 466.429752 600.15506 
L 476.677686 594.344538 
L 486.92562 599.567232 
L 497.173554 602.545742 
L 507.421488 602.915854 
L 517.669421 602.36699 
L 527.917355 599.647744 
L 538.165289 604.231889 
L 548.413223 601.631013 
L 558.661157 593.63263 
L 568.909091 593.035626 
L 579.157025 604.136195 
L 589.404959 600.843888 
L 599.652893 604.485195 
L 609.900826 602.112449 
L 620.14876 601.951613 
L 630.396694 604.334033 
L 640.644628 603.544867 
L 650.892562 603.814526 
L 661.140496 601.404783 
L 671.38843 603.466832 
L 681.636364 604.820558 
L 691.884298 603.183706 
L 702.132231 604.829353 
L 712.380165 604.736679 
L 722.628099 601.890519 
L 732.876033 602.989052 
L 743.123967 603.150864 
L 753.371901 604.430452 
L 763.619835 604.498745 
L 773.867769 604.476107 
L 784.115702 604.983801 
L 794.363636 604.216006 
L 804.61157 603.118105 
L 814.859504 602.455973 
L 825.107438 605.081915 
L 835.355372 598.305905 
L 845.603306 601.713932 
L 855.85124 604.317811 
L 866.099174 602.988839 
L 876.347107 599.107985 
L 886.595041 602.18115 
L 896.842975 605.145394 
L 907.090909 604.410684 
L 917.338843 604.850422 
L 927.586777 604.472361 
L 937.834711 604.45187 
L 948.082645 595.45366 
L 958.330579 604.600444 
L 968.578512 604.209105 
L 978.826446 604.821156 
L 989.07438 600.096064 
L 999.322314 601.656406 
L 1009.570248 604.250227 
L 1019.818182 603.753306 
L 1030.066116 603.591463 
L 1040.31405 604.704041 
L 1050.561983 604.447826 
L 1060.809917 594.853401 
L 1071.057851 604.782862 
L 1081.305785 604.807178 
L 1091.553719 604.928592 
L 1101.801653 605.010711 
L 1112.049587 604.522661 
L 1122.297521 604.888761 
L 1132.545455 605.110663 
L 1142.793388 603.771176 
L 1153.041322 603.466368 
L 1163.289256 603.774089 
L 1173.53719 603.975977 
L 1183.785124 604.653762 
L 1194.033058 598.46841 
L 1204.280992 605.031752 
L 1214.528926 602.571874 
L 1224.77686 603.356737 
L 1235.024793 603.836666 
L 1245.272727 604.927819 
" style="fill:none;stroke:#1f77b4;stroke-linecap:square;stroke-width:1.5;"/>
   </g>
   <g id="line2d_15">
    <path clip-path="url(#pf245aebb97)" d="M 230.727273 359.189968 
L 240.975207 487.931503 
L 251.22314 503.188728 
L 261.471074 522.750829 
L 271.719008 510.74287 
L 281.966942 538.928155 
L 292.214876 536.809139 
L 302.46281 503.375265 
L 312.710744 529.570224 
L 322.958678 541.024982 
L 333.206612 541.932731 
L 343.454545 563.025915 
L 353.702479 560.402779 
L 363.950413 566.038581 
L 374.198347 567.20397 
L 384.446281 558.463879 
L 394.694215 575.758178 
L 404.942149 559.759354 
L 415.190083 568.499243 
L 425.438017 527.329057 
L 435.68595 547.996798 
L 445.933884 543.069068 
L 456.181818 572.746116 
L 466.429752 566.579699 
L 476.677686 575.965013 
L 486.92562 576.990563 
L 497.173554 580.328143 
L 507.421488 586.652854 
L 517.669421 574.121006 
L 527.917355 581.477616 
L 538.165289 570.238646 
L 548.413223 573.009979 
L 558.661157 571.745949 
L 568.909091 575.171336 
L 579.157025 572.946716 
L 589.404959 581.549027 
L 599.652893 591.478653 
L 609.900826 585.455268 
L 620.14876 585.370047 
L 630.396694 577.998376 
L 640.644628 584.751637 
L 650.892562 575.582269 
L 661.140496 564.42206 
L 671.38843 556.701586 
L 681.636364 548.174827 
L 691.884298 530.012683 
L 702.132231 546.791502 
L 712.380165 579.800736 
L 722.628099 581.403303 
L 732.876033 590.877707 
L 743.123967 573.994474 
L 753.371901 580.138816 
L 763.619835 588.984418 
L 773.867769 589.021795 
L 784.115702 589.589908 
L 794.363636 582.701788 
L 804.61157 586.709033 
L 814.859504 588.630489 
L 825.107438 592.494937 
L 835.355372 584.629147 
L 845.603306 585.085525 
L 855.85124 590.29827 
L 866.099174 587.233226 
L 876.347107 593.588911 
L 886.595041 597.610579 
L 896.842975 588.611702 
L 907.090909 587.431878 
L 917.338843 582.037739 
L 927.586777 587.058366 
L 937.834711 585.655798 
L 948.082645 590.419562 
L 958.330579 582.811366 
L 968.578512 583.157717 
L 978.826446 595.298526 
L 989.07438 598.89636 
L 999.322314 595.705114 
L 1009.570248 590.875634 
L 1019.818182 592.435488 
L 1030.066116 594.072743 
L 1040.31405 595.146704 
L 1050.561983 588.609226 
L 1060.809917 590.321784 
L 1071.057851 593.918269 
L 1081.305785 595.403638 
L 1091.553719 599.739576 
L 1101.801653 596.573863 
L 1112.049587 588.388066 
L 1122.297521 595.71911 
L 1132.545455 593.658947 
L 1142.793388 601.53336 
L 1153.041322 597.910136 
L 1163.289256 594.691002 
L 1173.53719 585.993494 
L 1183.785124 594.588161 
L 1194.033058 599.938356 
L 1204.280992 592.954114 
L 1214.528926 588.447607 
L 1224.77686 594.477069 
L 1235.024793 598.15036 
L 1245.272727 597.740416 
" style="fill:none;stroke:#ff7f0e;stroke-linecap:square;stroke-width:1.5;"/>
   </g>
   <g id="line2d_16">
    <path clip-path="url(#pf245aebb97)" d="M 230.727273 219.04124 
L 240.975207 550.822539 
L 251.22314 583.720741 
L 261.471074 574.038162 
L 271.719008 559.001086 
L 281.966942 590.546047 
L 292.214876 582.873846 
L 302.46281 583.415232 
L 312.710744 583.971487 
L 322.958678 593.566851 
L 333.206612 587.515146 
L 343.454545 591.352575 
L 353.702479 595.15977 
L 363.950413 599.968001 
L 374.198347 590.528859 
L 384.446281 575.574895 
L 394.694215 584.906897 
L 404.942149 591.01478 
L 415.190083 588.380025 
L 425.438017 596.715784 
L 435.68595 602.016505 
L 445.933884 594.150768 
L 456.181818 594.117426 
L 466.429752 601.757655 
L 476.677686 603.174515 
L 486.92562 602.12468 
L 497.173554 597.707775 
L 507.421488 593.366724 
L 517.669421 602.018843 
L 527.917355 602.90341 
L 538.165289 598.126425 
L 548.413223 602.032262 
L 558.661157 603.464561 
L 568.909091 603.419974 
L 579.157025 603.194221 
L 589.404959 602.674146 
L 599.652893 596.702205 
L 609.900826 580.557798 
L 620.14876 597.282321 
L 630.396694 601.876069 
L 640.644628 603.256382 
L 650.892562 601.58101 
L 661.140496 603.446922 
L 671.38843 603.580943 
L 681.636364 602.60559 
L 691.884298 596.949365 
L 702.132231 604.237665 
L 712.380165 603.802893 
L 722.628099 605.039488 
L 732.876033 598.477387 
L 743.123967 600.430989 
L 753.371901 603.325715 
L 763.619835 600.742884 
L 773.867769 600.561974 
L 784.115702 595.883095 
L 794.363636 602.948519 
L 804.61157 601.988499 
L 814.859504 604.309199 
L 825.107438 604.665168 
L 835.355372 598.66971 
L 845.603306 604.87894 
L 855.85124 604.792926 
L 866.099174 604.472851 
L 876.347107 604.440364 
L 886.595041 604.827873 
L 896.842975 605.189376 
L 907.090909 605.2361 
L 917.338843 605.035019 
L 927.586777 605.049951 
L 937.834711 604.228326 
L 948.082645 602.833791 
L 958.330579 604.824542 
L 968.578512 604.659289 
L 978.826446 605.024555 
L 989.07438 604.852558 
L 999.322314 605.209967 
L 1009.570248 605.014068 
L 1019.818182 605.153021 
L 1030.066116 605.099217 
L 1040.31405 604.610527 
L 1050.561983 604.96934 
L 1060.809917 604.672996 
L 1071.057851 603.513205 
L 1081.305785 604.138849 
L 1091.553719 604.685871 
L 1101.801653 604.690028 
L 1112.049587 604.807181 
L 1122.297521 605.22152 
L 1132.545455 603.428438 
L 1142.793388 595.012796 
L 1153.041322 604.291448 
L 1163.289256 603.458734 
L 1173.53719 604.935613 
L 1183.785124 604.946617 
L 1194.033058 605.081788 
L 1204.280992 605.127029 
L 1214.528926 604.176282 
L 1224.77686 604.892776 
L 1235.024793 602.744826 
L 1245.272727 599.292311 
" style="fill:none;stroke:#2ca02c;stroke-linecap:square;stroke-width:1.5;"/>
   </g>
   <g id="line2d_17">
    <path clip-path="url(#pf245aebb97)" d="M 230.727273 111.109091 
L 240.975207 304.178167 
L 251.22314 338.3441 
L 261.471074 357.517323 
L 271.719008 371.112099 
L 281.966942 393.87858 
L 292.214876 382.369503 
L 302.46281 210.628263 
L 312.710744 319.277407 
L 322.958678 394.353163 
L 333.206612 444.04977 
L 343.454545 483.536089 
L 353.702479 442.670534 
L 363.950413 481.12395 
L 374.198347 430.073411 
L 384.446281 390.503916 
L 394.694215 331.007492 
L 404.942149 324.374104 
L 415.190083 333.53223 
L 425.438017 340.713895 
L 435.68595 347.436846 
L 445.933884 365.80768 
L 456.181818 370.735782 
L 466.429752 359.536008 
L 476.677686 396.711403 
L 486.92562 320.931573 
L 497.173554 320.944932 
L 507.421488 321.154018 
L 517.669421 321.33724 
L 527.917355 321.531871 
L 538.165289 321.636743 
L 548.413223 321.887808 
L 558.661157 322.006186 
L 568.909091 322.179486 
L 579.157025 322.265832 
L 589.404959 322.453978 
L 599.652893 322.567602 
L 609.900826 322.665624 
L 620.14876 322.815912 
L 630.396694 322.916689 
L 640.644628 323.019758 
L 650.892562 323.095279 
L 661.140496 323.20259 
L 671.38843 323.297492 
L 681.636364 323.355462 
L 691.884298 323.414748 
L 702.132231 323.536392 
L 712.380165 323.574007 
L 722.628099 323.64848 
L 732.876033 323.704207 
L 743.123967 325.553126 
L 753.371901 324.710978 
L 763.619835 327.103541 
L 773.867769 327.72261 
L 784.115702 331.468716 
L 794.363636 341.359535 
L 804.61157 356.86415 
L 814.859504 360.227697 
L 825.107438 336.397695 
L 835.355372 323.332181 
L 845.603306 323.335813 
L 855.85124 323.436468 
L 866.099174 323.495876 
L 876.347107 323.544778 
L 886.595041 323.58817 
L 896.842975 323.622981 
L 907.090909 323.695627 
L 917.338843 323.745064 
L 927.586777 323.787408 
L 937.834711 323.822195 
L 948.082645 323.883383 
L 958.330579 323.923313 
L 968.578512 323.953883 
L 978.826446 323.988011 
L 989.07438 323.997787 
L 999.322314 324.06524 
L 1009.570248 324.066727 
L 1019.818182 324.12438 
L 1030.066116 324.13808 
L 1040.31405 324.171843 
L 1050.561983 324.156241 
L 1060.809917 324.212285 
L 1071.057851 324.219672 
L 1081.305785 324.233908 
L 1091.553719 324.238564 
L 1101.801653 324.260748 
L 1112.049587 324.291683 
L 1122.297521 324.307553 
L 1132.545455 324.309674 
L 1142.793388 324.311088 
L 1153.041322 324.333198 
L 1163.289256 324.335441 
L 1173.53719 324.35409 
L 1183.785124 324.359526 
L 1194.033058 324.354602 
L 1204.280992 324.389705 
L 1214.528926 324.385829 
L 1224.77686 324.397604 
L 1235.024793 324.408379 
L 1245.272727 324.413595 
" style="fill:none;stroke:#d62728;stroke-linecap:square;stroke-width:1.5;"/>
   </g>
   <g id="line2d_18">
    <path clip-path="url(#pf245aebb97)" d="M 230.727273 305.280351 
L 240.975207 395.525872 
L 251.22314 522.585646 
L 261.471074 555.667239 
L 271.719008 562.294861 
L 281.966942 564.488455 
L 292.214876 575.976056 
L 302.46281 550.041883 
L 312.710744 566.447813 
L 322.958678 564.495098 
L 333.206612 564.391585 
L 343.454545 570.563742 
L 353.702479 569.672375 
L 363.950413 565.598486 
L 374.198347 588.996775 
L 384.446281 576.176809 
L 394.694215 576.505032 
L 404.942149 582.972638 
L 415.190083 587.141472 
L 425.438017 573.308215 
L 435.68595 559.415255 
L 445.933884 578.041774 
L 456.181818 569.542171 
L 466.429752 572.86836 
L 476.677686 584.098563 
L 486.92562 580.130673 
L 497.173554 583.806704 
L 507.421488 595.82745 
L 517.669421 589.104166 
L 527.917355 595.801621 
L 538.165289 596.328105 
L 548.413223 595.393976 
L 558.661157 585.160437 
L 568.909091 591.202105 
L 579.157025 583.284345 
L 589.404959 595.129802 
L 599.652893 580.83372 
L 609.900826 594.957817 
L 620.14876 592.004644 
L 630.396694 590.344958 
L 640.644628 601.10717 
L 650.892562 599.101624 
L 661.140496 588.4986 
L 671.38843 581.742464 
L 681.636364 583.100821 
L 691.884298 587.318968 
L 702.132231 591.069436 
L 712.380165 597.892221 
L 722.628099 585.976499 
L 732.876033 599.825857 
L 743.123967 599.26903 
L 753.371901 600.811474 
L 763.619835 593.946343 
L 773.867769 587.242507 
L 784.115702 577.05606 
L 794.363636 598.193176 
L 804.61157 598.471153 
L 814.859504 595.803198 
L 825.107438 599.996495 
L 835.355372 602.543861 
L 845.603306 601.104036 
L 855.85124 603.101458 
L 866.099174 602.174698 
L 876.347107 603.531977 
L 886.595041 595.602283 
L 896.842975 602.56432 
L 907.090909 592.420788 
L 917.338843 590.174068 
L 927.586777 599.891147 
L 937.834711 597.675433 
L 948.082645 596.979673 
L 958.330579 598.82653 
L 968.578512 601.786215 
L 978.826446 603.287657 
L 989.07438 602.600783 
L 999.322314 601.534136 
L 1009.570248 599.650254 
L 1019.818182 594.440364 
L 1030.066116 603.016716 
L 1040.31405 597.752323 
L 1050.561983 584.706641 
L 1060.809917 598.15795 
L 1071.057851 598.286293 
L 1081.305785 591.632445 
L 1091.553719 600.279294 
L 1101.801653 603.362202 
L 1112.049587 602.15613 
L 1122.297521 598.433249 
L 1132.545455 600.675834 
L 1142.793388 600.012198 
L 1153.041322 594.314795 
L 1163.289256 592.414735 
L 1173.53719 599.595165 
L 1183.785124 597.082571 
L 1194.033058 600.50006 
L 1204.280992 597.522617 
L 1214.528926 596.578004 
L 1224.77686 601.951056 
L 1235.024793 596.536152 
L 1245.272727 599.317178 
" style="fill:none;stroke:#9467bd;stroke-linecap:square;stroke-width:1.5;"/>
   </g>
   <g id="line2d_19">
    <path clip-path="url(#pf245aebb97)" d="M 230.727273 369.43592 
L 240.975207 483.326953 
L 251.22314 556.095148 
L 261.471074 578.815318 
L 271.719008 592.584304 
L 281.966942 582.283144 
L 292.214876 580.911261 
L 302.46281 601.420338 
L 312.710744 598.718745 
L 322.958678 602.063555 
L 333.206612 596.071286 
L 343.454545 602.708827 
L 353.702479 592.005858 
L 363.950413 600.438266 
L 374.198347 604.2983 
L 384.446281 604.471817 
L 394.694215 604.029666 
L 404.942149 598.230704 
L 415.190083 599.51509 
L 425.438017 602.259534 
L 435.68595 602.058127 
L 445.933884 603.941742 
L 456.181818 595.835524 
L 466.429752 600.825658 
L 476.677686 601.309546 
L 486.92562 601.699888 
L 497.173554 604.615226 
L 507.421488 604.780299 
L 517.669421 604.832396 
L 527.917355 603.310951 
L 538.165289 601.4033 
L 548.413223 603.341418 
L 558.661157 603.734782 
L 568.909091 604.556817 
L 579.157025 604.618583 
L 589.404959 601.664002 
L 599.652893 603.858712 
L 609.900826 605.224324 
L 620.14876 603.605869 
L 630.396694 604.877686 
L 640.644628 605.143226 
L 650.892562 605.127948 
L 661.140496 604.389722 
L 671.38843 604.230089 
L 681.636364 605.006539 
L 691.884298 604.764117 
L 702.132231 605.255191 
L 712.380165 605.237276 
L 722.628099 605.214489 
L 732.876033 605.079919 
L 743.123967 605.250987 
L 753.371901 602.404055 
L 763.619835 604.198933 
L 773.867769 604.610042 
L 784.115702 604.506816 
L 794.363636 604.873184 
L 804.61157 603.978644 
L 814.859504 604.777969 
L 825.107438 605.165921 
L 835.355372 604.300935 
L 845.603306 605.135666 
L 855.85124 604.553821 
L 866.099174 604.797812 
L 876.347107 588.403669 
L 886.595041 604.747894 
L 896.842975 604.675224 
L 907.090909 601.413116 
L 917.338843 605.028068 
L 927.586777 604.988735 
L 937.834711 605.204454 
L 948.082645 603.393977 
L 958.330579 602.118901 
L 968.578512 604.381863 
L 978.826446 604.123568 
L 989.07438 604.585662 
L 999.322314 605.230582 
L 1009.570248 605.137245 
L 1019.818182 605.096239 
L 1030.066116 605.098625 
L 1040.31405 604.081978 
L 1050.561983 604.538198 
L 1060.809917 600.4802 
L 1071.057851 605.140931 
L 1081.305785 603.167918 
L 1091.553719 605.290909 
L 1101.801653 605.228965 
L 1112.049587 604.96514 
L 1122.297521 605.244079 
L 1132.545455 605.228688 
L 1142.793388 605.139092 
L 1153.041322 603.56989 
L 1163.289256 602.765168 
L 1173.53719 605.225769 
L 1183.785124 601.270967 
L 1194.033058 603.835888 
L 1204.280992 603.409536 
L 1214.528926 605.235033 
L 1224.77686 604.980531 
L 1235.024793 605.27403 
L 1245.272727 605.256972 
" style="fill:none;stroke:#8c564b;stroke-linecap:square;stroke-width:1.5;"/>
   </g>
   <g id="line2d_20">
    <path clip-path="url(#pf245aebb97)" d="M 230.727273 497.946003 
L 240.975207 511.38163 
L 251.22314 567.889846 
L 261.471074 537.22939 
L 271.719008 556.988011 
L 281.966942 562.051585 
L 292.214876 572.35616 
L 302.46281 570.9125 
L 312.710744 574.269134 
L 322.958678 577.697224 
L 333.206612 553.147845 
L 343.454545 570.223269 
L 353.702479 598.35416 
L 363.950413 589.507868 
L 374.198347 596.594153 
L 384.446281 594.254139 
L 394.694215 597.12246 
L 404.942149 589.231178 
L 415.190083 580.680655 
L 425.438017 595.215548 
L 435.68595 599.623303 
L 445.933884 591.503227 
L 456.181818 588.50886 
L 466.429752 586.747518 
L 476.677686 578.70599 
L 486.92562 596.452287 
L 497.173554 600.484916 
L 507.421488 588.835554 
L 517.669421 588.136349 
L 527.917355 589.01383 
L 538.165289 575.491816 
L 548.413223 573.440771 
L 558.661157 599.054592 
L 568.909091 592.11642 
L 579.157025 600.686756 
L 589.404959 590.213682 
L 599.652893 598.429753 
L 609.900826 597.131477 
L 620.14876 593.951141 
L 630.396694 592.367579 
L 640.644628 601.926549 
L 650.892562 601.747708 
L 661.140496 599.826792 
L 671.38843 592.657458 
L 681.636364 602.324453 
L 691.884298 603.826987 
L 702.132231 590.562729 
L 712.380165 598.930932 
L 722.628099 604.333266 
L 732.876033 592.668822 
L 743.123967 601.039224 
L 753.371901 598.816805 
L 763.619835 597.660131 
L 773.867769 600.152287 
L 784.115702 600.676029 
L 794.363636 603.777246 
L 804.61157 597.289168 
L 814.859504 603.633312 
L 825.107438 601.12043 
L 835.355372 597.951632 
L 845.603306 600.151049 
L 855.85124 603.028115 
L 866.099174 597.418569 
L 876.347107 594.225696 
L 886.595041 585.954132 
L 896.842975 595.492248 
L 907.090909 602.603862 
L 917.338843 603.483533 
L 927.586777 603.749856 
L 937.834711 603.547029 
L 948.082645 604.315053 
L 958.330579 603.905313 
L 968.578512 602.96924 
L 978.826446 600.207345 
L 989.07438 600.93043 
L 999.322314 602.864808 
L 1009.570248 604.448543 
L 1019.818182 603.720696 
L 1030.066116 603.209789 
L 1040.31405 595.922269 
L 1050.561983 603.167025 
L 1060.809917 601.520633 
L 1071.057851 597.894301 
L 1081.305785 600.012613 
L 1091.553719 601.253035 
L 1101.801653 602.777759 
L 1112.049587 601.607453 
L 1122.297521 595.418832 
L 1132.545455 597.930293 
L 1142.793388 604.243766 
L 1153.041322 598.784113 
L 1163.289256 596.734376 
L 1173.53719 603.346428 
L 1183.785124 589.559656 
L 1194.033058 601.548674 
L 1204.280992 601.083577 
L 1214.528926 602.229042 
L 1224.77686 604.617185 
L 1235.024793 604.558899 
L 1245.272727 603.537179 
" style="fill:none;stroke:#e377c2;stroke-linecap:square;stroke-width:1.5;"/>
   </g>
   <g id="line2d_21">
    <path clip-path="url(#pf245aebb97)" d="M 230.727273 131.606993 
L 240.975207 369.849827 
L 251.22314 430.540389 
L 261.471074 462.75275 
L 271.719008 486.65285 
L 281.966942 485.987232 
L 292.214876 500.750877 
L 302.46281 454.43175 
L 312.710744 466.447272 
L 322.958678 480.02296 
L 333.206612 485.800914 
L 343.454545 493.682422 
L 353.702479 492.977507 
L 363.950413 505.187764 
L 374.198347 504.0385 
L 384.446281 517.945023 
L 394.694215 531.992302 
L 404.942149 532.166017 
L 415.190083 537.30067 
L 425.438017 528.954494 
L 435.68595 549.063135 
L 445.933884 560.235314 
L 456.181818 530.82826 
L 466.429752 550.043602 
L 476.677686 520.585513 
L 486.92562 547.615922 
L 497.173554 521.468994 
L 507.421488 541.893196 
L 517.669421 545.870657 
L 527.917355 548.107344 
L 538.165289 551.445533 
L 548.413223 556.372699 
L 558.661157 561.934707 
L 568.909091 548.544166 
L 579.157025 549.586028 
L 589.404959 540.373503 
L 599.652893 545.057414 
L 609.900826 552.686456 
L 620.14876 506.891051 
L 630.396694 522.000407 
L 640.644628 538.072227 
L 650.892562 545.132826 
L 661.140496 523.641708 
L 671.38843 546.970257 
L 681.636364 557.739161 
L 691.884298 564.775547 
L 702.132231 551.918117 
L 712.380165 563.624013 
L 722.628099 533.248157 
L 732.876033 547.800558 
L 743.123967 526.510537 
L 753.371901 521.164841 
L 763.619835 544.398305 
L 773.867769 557.730726 
L 784.115702 564.318455 
L 794.363636 560.31768 
L 804.61157 567.439214 
L 814.859504 533.634749 
L 825.107438 552.470934 
L 835.355372 563.190744 
L 845.603306 556.024596 
L 855.85124 576.978368 
L 866.099174 543.687576 
L 876.347107 559.369151 
L 886.595041 566.635116 
L 896.842975 564.188096 
L 907.090909 550.509098 
L 917.338843 571.122586 
L 927.586777 524.980404 
L 937.834711 549.140784 
L 948.082645 569.263624 
L 958.330579 561.551046 
L 968.578512 562.419821 
L 978.826446 547.788235 
L 989.07438 577.756504 
L 999.322314 560.182783 
L 1009.570248 562.466364 
L 1019.818182 552.884329 
L 1030.066116 567.953752 
L 1040.31405 568.058201 
L 1050.561983 560.362876 
L 1060.809917 570.832414 
L 1071.057851 567.374875 
L 1081.305785 569.233225 
L 1091.553719 557.721289 
L 1101.801653 573.750668 
L 1112.049587 557.012273 
L 1122.297521 555.491309 
L 1132.545455 576.368596 
L 1142.793388 576.100019 
L 1153.041322 539.663316 
L 1163.289256 563.351837 
L 1173.53719 572.518048 
L 1183.785124 570.287919 
L 1194.033058 579.499484 
L 1204.280992 567.997836 
L 1214.528926 569.861244 
L 1224.77686 571.487333 
L 1235.024793 570.6834 
L 1245.272727 527.041962 
" style="fill:none;stroke:#7f7f7f;stroke-linecap:square;stroke-width:1.5;"/>
   </g>
   <g id="line2d_22">
    <path clip-path="url(#pf245aebb97)" d="M 230.727273 315.407049 
L 240.975207 323.95359 
L 251.22314 468.820199 
L 261.471074 508.939147 
L 271.719008 486.893286 
L 281.966942 532.991357 
L 292.214876 538.473403 
L 302.46281 543.411183 
L 312.710744 553.216395 
L 322.958678 551.899791 
L 333.206612 558.184835 
L 343.454545 555.415549 
L 353.702479 565.492449 
L 363.950413 543.029101 
L 374.198347 541.276071 
L 384.446281 565.707554 
L 394.694215 559.342064 
L 404.942149 565.424939 
L 415.190083 559.535126 
L 425.438017 560.291456 
L 435.68595 573.931275 
L 445.933884 551.997247 
L 456.181818 578.26354 
L 466.429752 571.742658 
L 476.677686 580.041508 
L 486.92562 578.134622 
L 497.173554 580.473087 
L 507.421488 582.072357 
L 517.669421 574.009226 
L 527.917355 583.489856 
L 538.165289 578.54305 
L 548.413223 574.363987 
L 558.661157 582.652076 
L 568.909091 565.183238 
L 579.157025 582.377073 
L 589.404959 579.578797 
L 599.652893 575.645502 
L 609.900826 583.978753 
L 620.14876 584.68595 
L 630.396694 583.055404 
L 640.644628 587.658912 
L 650.892562 575.167576 
L 661.140496 578.665947 
L 671.38843 571.373545 
L 681.636364 593.214241 
L 691.884298 587.077639 
L 702.132231 584.889919 
L 712.380165 587.699417 
L 722.628099 589.661204 
L 732.876033 582.420696 
L 743.123967 590.640161 
L 753.371901 586.783493 
L 763.619835 592.153286 
L 773.867769 590.747491 
L 784.115702 585.66751 
L 794.363636 591.674805 
L 804.61157 583.456072 
L 814.859504 590.7012 
L 825.107438 590.143971 
L 835.355372 579.877206 
L 845.603306 590.997142 
L 855.85124 594.966242 
L 866.099174 590.807678 
L 876.347107 588.45219 
L 886.595041 588.215438 
L 896.842975 581.143017 
L 907.090909 589.954685 
L 917.338843 597.136717 
L 927.586777 593.066659 
L 937.834711 594.637115 
L 948.082645 588.493511 
L 958.330579 588.901737 
L 968.578512 592.881245 
L 978.826446 595.744173 
L 989.07438 596.053502 
L 999.322314 592.50096 
L 1009.570248 591.297503 
L 1019.818182 593.805674 
L 1030.066116 591.687205 
L 1040.31405 593.550051 
L 1050.561983 599.488546 
L 1060.809917 595.483048 
L 1071.057851 588.339297 
L 1081.305785 597.422172 
L 1091.553719 591.144401 
L 1101.801653 596.278329 
L 1112.049587 591.781854 
L 1122.297521 596.503126 
L 1132.545455 596.389528 
L 1142.793388 598.132772 
L 1153.041322 596.204817 
L 1163.289256 597.932171 
L 1173.53719 597.43781 
L 1183.785124 596.4954 
L 1194.033058 588.249204 
L 1204.280992 595.001642 
L 1214.528926 594.902215 
L 1224.77686 596.570288 
L 1235.024793 596.988176 
L 1245.272727 593.877939 
" style="fill:none;stroke:#bcbd22;stroke-linecap:square;stroke-width:1.5;"/>
   </g>
   <g id="patch_3">
    <path d="M 180 630 
L 180 86.4 
" style="fill:none;stroke:#000000;stroke-linecap:square;stroke-linejoin:miter;stroke-width:0.8;"/>
   </g>
   <g id="patch_4">
    <path d="M 1296 630 
L 1296 86.4 
" style="fill:none;stroke:#000000;stroke-linecap:square;stroke-linejoin:miter;stroke-width:0.8;"/>
   </g>
   <g id="patch_5">
    <path d="M 180 630 
L 1296 630 
" style="fill:none;stroke:#000000;stroke-linecap:square;stroke-linejoin:miter;stroke-width:0.8;"/>
   </g>
   <g id="patch_6">
    <path d="M 180 86.4 
L 1296 86.4 
" style="fill:none;stroke:#000000;stroke-linecap:square;stroke-linejoin:miter;stroke-width:0.8;"/>
   </g>
   <g id="text_14">
    <!-- Cross Entropy Loss -->
    <defs>
     <path d="M 64.40625 67.28125 
L 64.40625 56.890625 
Q 59.421875 61.53125 53.78125 63.8125 
Q 48.140625 66.109375 41.796875 66.109375 
Q 29.296875 66.109375 22.65625 58.46875 
Q 16.015625 50.828125 16.015625 36.375 
Q 16.015625 21.96875 22.65625 14.328125 
Q 29.296875 6.6875 41.796875 6.6875 
Q 48.140625 6.6875 53.78125 8.984375 
Q 59.421875 11.28125 64.40625 15.921875 
L 64.40625 5.609375 
Q 59.234375 2.09375 53.4375 0.328125 
Q 47.65625 -1.421875 41.21875 -1.421875 
Q 24.65625 -1.421875 15.125 8.703125 
Q 5.609375 18.84375 5.609375 36.375 
Q 5.609375 53.953125 15.125 64.078125 
Q 24.65625 74.21875 41.21875 74.21875 
Q 47.75 74.21875 53.53125 72.484375 
Q 59.328125 70.75 64.40625 67.28125 
z
" id="DejaVuSans-67"/>
     <path d="M 41.109375 46.296875 
Q 39.59375 47.171875 37.8125 47.578125 
Q 36.03125 48 33.890625 48 
Q 26.265625 48 22.1875 43.046875 
Q 18.109375 38.09375 18.109375 28.8125 
L 18.109375 0 
L 9.078125 0 
L 9.078125 54.6875 
L 18.109375 54.6875 
L 18.109375 46.1875 
Q 20.953125 51.171875 25.484375 53.578125 
Q 30.03125 56 36.53125 56 
Q 37.453125 56 38.578125 55.875 
Q 39.703125 55.765625 41.0625 55.515625 
z
" id="DejaVuSans-114"/>
     <path d="M 30.609375 48.390625 
Q 23.390625 48.390625 19.1875 42.75 
Q 14.984375 37.109375 14.984375 27.296875 
Q 14.984375 17.484375 19.15625 11.84375 
Q 23.34375 6.203125 30.609375 6.203125 
Q 37.796875 6.203125 41.984375 11.859375 
Q 46.1875 17.53125 46.1875 27.296875 
Q 46.1875 37.015625 41.984375 42.703125 
Q 37.796875 48.390625 30.609375 48.390625 
z
M 30.609375 56 
Q 42.328125 56 49.015625 48.375 
Q 55.71875 40.765625 55.71875 27.296875 
Q 55.71875 13.875 49.015625 6.21875 
Q 42.328125 -1.421875 30.609375 -1.421875 
Q 18.84375 -1.421875 12.171875 6.21875 
Q 5.515625 13.875 5.515625 27.296875 
Q 5.515625 40.765625 12.171875 48.375 
Q 18.84375 56 30.609375 56 
z
" id="DejaVuSans-111"/>
     <path d="M 44.28125 53.078125 
L 44.28125 44.578125 
Q 40.484375 46.53125 36.375 47.5 
Q 32.28125 48.484375 27.875 48.484375 
Q 21.1875 48.484375 17.84375 46.4375 
Q 14.5 44.390625 14.5 40.28125 
Q 14.5 37.15625 16.890625 35.375 
Q 19.28125 33.59375 26.515625 31.984375 
L 29.59375 31.296875 
Q 39.15625 29.25 43.1875 25.515625 
Q 47.21875 21.78125 47.21875 15.09375 
Q 47.21875 7.46875 41.1875 3.015625 
Q 35.15625 -1.421875 24.609375 -1.421875 
Q 20.21875 -1.421875 15.453125 -0.5625 
Q 10.6875 0.296875 5.421875 2 
L 5.421875 11.28125 
Q 10.40625 8.6875 15.234375 7.390625 
Q 20.0625 6.109375 24.8125 6.109375 
Q 31.15625 6.109375 34.5625 8.28125 
Q 37.984375 10.453125 37.984375 14.40625 
Q 37.984375 18.0625 35.515625 20.015625 
Q 33.0625 21.96875 24.703125 23.78125 
L 21.578125 24.515625 
Q 13.234375 26.265625 9.515625 29.90625 
Q 5.8125 33.546875 5.8125 39.890625 
Q 5.8125 47.609375 11.28125 51.796875 
Q 16.75 56 26.8125 56 
Q 31.78125 56 36.171875 55.265625 
Q 40.578125 54.546875 44.28125 53.078125 
z
" id="DejaVuSans-115"/>
     <path id="DejaVuSans-32"/>
     <path d="M 9.8125 72.90625 
L 55.90625 72.90625 
L 55.90625 64.59375 
L 19.671875 64.59375 
L 19.671875 43.015625 
L 54.390625 43.015625 
L 54.390625 34.71875 
L 19.671875 34.71875 
L 19.671875 8.296875 
L 56.78125 8.296875 
L 56.78125 0 
L 9.8125 0 
z
" id="DejaVuSans-69"/>
     <path d="M 54.890625 33.015625 
L 54.890625 0 
L 45.90625 0 
L 45.90625 32.71875 
Q 45.90625 40.484375 42.875 44.328125 
Q 39.84375 48.1875 33.796875 48.1875 
Q 26.515625 48.1875 22.3125 43.546875 
Q 18.109375 38.921875 18.109375 30.90625 
L 18.109375 0 
L 9.078125 0 
L 9.078125 54.6875 
L 18.109375 54.6875 
L 18.109375 46.1875 
Q 21.34375 51.125 25.703125 53.5625 
Q 30.078125 56 35.796875 56 
Q 45.21875 56 50.046875 50.171875 
Q 54.890625 44.34375 54.890625 33.015625 
z
" id="DejaVuSans-110"/>
     <path d="M 18.3125 70.21875 
L 18.3125 54.6875 
L 36.8125 54.6875 
L 36.8125 47.703125 
L 18.3125 47.703125 
L 18.3125 18.015625 
Q 18.3125 11.328125 20.140625 9.421875 
Q 21.96875 7.515625 27.59375 7.515625 
L 36.8125 7.515625 
L 36.8125 0 
L 27.59375 0 
Q 17.1875 0 13.234375 3.875 
Q 9.28125 7.765625 9.28125 18.015625 
L 9.28125 47.703125 
L 2.6875 47.703125 
L 2.6875 54.6875 
L 9.28125 54.6875 
L 9.28125 70.21875 
z
" id="DejaVuSans-116"/>
     <path d="M 18.109375 8.203125 
L 18.109375 -20.796875 
L 9.078125 -20.796875 
L 9.078125 54.6875 
L 18.109375 54.6875 
L 18.109375 46.390625 
Q 20.953125 51.265625 25.265625 53.625 
Q 29.59375 56 35.59375 56 
Q 45.5625 56 51.78125 48.09375 
Q 58.015625 40.1875 58.015625 27.296875 
Q 58.015625 14.40625 51.78125 6.484375 
Q 45.5625 -1.421875 35.59375 -1.421875 
Q 29.59375 -1.421875 25.265625 0.953125 
Q 20.953125 3.328125 18.109375 8.203125 
z
M 48.6875 27.296875 
Q 48.6875 37.203125 44.609375 42.84375 
Q 40.53125 48.484375 33.40625 48.484375 
Q 26.265625 48.484375 22.1875 42.84375 
Q 18.109375 37.203125 18.109375 27.296875 
Q 18.109375 17.390625 22.1875 11.75 
Q 26.265625 6.109375 33.40625 6.109375 
Q 40.53125 6.109375 44.609375 11.75 
Q 48.6875 17.390625 48.6875 27.296875 
z
" id="DejaVuSans-112"/>
     <path d="M 32.171875 -5.078125 
Q 28.375 -14.84375 24.75 -17.8125 
Q 21.140625 -20.796875 15.09375 -20.796875 
L 7.90625 -20.796875 
L 7.90625 -13.28125 
L 13.1875 -13.28125 
Q 16.890625 -13.28125 18.9375 -11.515625 
Q 21 -9.765625 23.484375 -3.21875 
L 25.09375 0.875 
L 2.984375 54.6875 
L 12.5 54.6875 
L 29.59375 11.921875 
L 46.6875 54.6875 
L 56.203125 54.6875 
z
" id="DejaVuSans-121"/>
     <path d="M 9.8125 72.90625 
L 19.671875 72.90625 
L 19.671875 8.296875 
L 55.171875 8.296875 
L 55.171875 0 
L 9.8125 0 
z
" id="DejaVuSans-76"/>
    </defs>
    <g transform="translate(681.272812 80.4)scale(0.12 -0.12)">
     <use xlink:href="#DejaVuSans-67"/>
     <use x="69.824219" xlink:href="#DejaVuSans-114"/>
     <use x="108.6875" xlink:href="#DejaVuSans-111"/>
     <use x="169.869141" xlink:href="#DejaVuSans-115"/>
     <use x="221.96875" xlink:href="#DejaVuSans-115"/>
     <use x="274.068359" xlink:href="#DejaVuSans-32"/>
     <use x="305.855469" xlink:href="#DejaVuSans-69"/>
     <use x="369.039062" xlink:href="#DejaVuSans-110"/>
     <use x="432.417969" xlink:href="#DejaVuSans-116"/>
     <use x="471.626953" xlink:href="#DejaVuSans-114"/>
     <use x="510.490234" xlink:href="#DejaVuSans-111"/>
     <use x="571.671875" xlink:href="#DejaVuSans-112"/>
     <use x="635.148438" xlink:href="#DejaVuSans-121"/>
     <use x="694.328125" xlink:href="#DejaVuSans-32"/>
     <use x="726.115234" xlink:href="#DejaVuSans-76"/>
     <use x="780.078125" xlink:href="#DejaVuSans-111"/>
     <use x="841.259766" xlink:href="#DejaVuSans-115"/>
     <use x="893.359375" xlink:href="#DejaVuSans-115"/>
    </g>
   </g>
   <g id="legend_1">
    <g id="patch_7">
     <path d="M 1188.804688 226.503125 
L 1289 226.503125 
Q 1291 226.503125 1291 224.503125 
L 1291 93.4 
Q 1291 91.4 1289 91.4 
L 1188.804688 91.4 
Q 1186.804688 91.4 1186.804688 93.4 
L 1186.804688 224.503125 
Q 1186.804688 226.503125 1188.804688 226.503125 
z
" style="fill:#ffffff;opacity:0.8;stroke:#cccccc;stroke-linejoin:miter;"/>
    </g>
    <g id="line2d_23">
     <path d="M 1190.804688 99.498438 
L 1210.804688 99.498438 
" style="fill:none;stroke:#1f77b4;stroke-linecap:square;stroke-width:1.5;"/>
    </g>
    <g id="line2d_24"/>
    <g id="text_15">
     <!-- DenseNet121 -->
     <defs>
      <path d="M 19.671875 64.796875 
L 19.671875 8.109375 
L 31.59375 8.109375 
Q 46.6875 8.109375 53.6875 14.9375 
Q 60.6875 21.78125 60.6875 36.53125 
Q 60.6875 51.171875 53.6875 57.984375 
Q 46.6875 64.796875 31.59375 64.796875 
z
M 9.8125 72.90625 
L 30.078125 72.90625 
Q 51.265625 72.90625 61.171875 64.09375 
Q 71.09375 55.28125 71.09375 36.53125 
Q 71.09375 17.671875 61.125 8.828125 
Q 51.171875 0 30.078125 0 
L 9.8125 0 
z
" id="DejaVuSans-68"/>
      <path d="M 56.203125 29.59375 
L 56.203125 25.203125 
L 14.890625 25.203125 
Q 15.484375 15.921875 20.484375 11.0625 
Q 25.484375 6.203125 34.421875 6.203125 
Q 39.59375 6.203125 44.453125 7.46875 
Q 49.3125 8.734375 54.109375 11.28125 
L 54.109375 2.78125 
Q 49.265625 0.734375 44.1875 -0.34375 
Q 39.109375 -1.421875 33.890625 -1.421875 
Q 20.796875 -1.421875 13.15625 6.1875 
Q 5.515625 13.8125 5.515625 26.8125 
Q 5.515625 40.234375 12.765625 48.109375 
Q 20.015625 56 32.328125 56 
Q 43.359375 56 49.78125 48.890625 
Q 56.203125 41.796875 56.203125 29.59375 
z
M 47.21875 32.234375 
Q 47.125 39.59375 43.09375 43.984375 
Q 39.0625 48.390625 32.421875 48.390625 
Q 24.90625 48.390625 20.390625 44.140625 
Q 15.875 39.890625 15.1875 32.171875 
z
" id="DejaVuSans-101"/>
      <path d="M 9.8125 72.90625 
L 23.09375 72.90625 
L 55.421875 11.921875 
L 55.421875 72.90625 
L 64.984375 72.90625 
L 64.984375 0 
L 51.703125 0 
L 19.390625 60.984375 
L 19.390625 0 
L 9.8125 0 
z
" id="DejaVuSans-78"/>
     </defs>
     <g transform="translate(1218.804688 102.998438)scale(0.1 -0.1)">
      <use xlink:href="#DejaVuSans-68"/>
      <use x="77.001953" xlink:href="#DejaVuSans-101"/>
      <use x="138.525391" xlink:href="#DejaVuSans-110"/>
      <use x="201.904297" xlink:href="#DejaVuSans-115"/>
      <use x="254.003906" xlink:href="#DejaVuSans-101"/>
      <use x="315.527344" xlink:href="#DejaVuSans-78"/>
      <use x="390.332031" xlink:href="#DejaVuSans-101"/>
      <use x="451.855469" xlink:href="#DejaVuSans-116"/>
      <use x="491.064453" xlink:href="#DejaVuSans-49"/>
      <use x="554.6875" xlink:href="#DejaVuSans-50"/>
      <use x="618.310547" xlink:href="#DejaVuSans-49"/>
     </g>
    </g>
    <g id="line2d_25">
     <path d="M 1190.804688 114.176563 
L 1210.804688 114.176563 
" style="fill:none;stroke:#ff7f0e;stroke-linecap:square;stroke-width:1.5;"/>
    </g>
    <g id="line2d_26"/>
    <g id="text_16">
     <!-- VGG19 -->
     <defs>
      <path d="M 28.609375 0 
L 0.78125 72.90625 
L 11.078125 72.90625 
L 34.1875 11.53125 
L 57.328125 72.90625 
L 67.578125 72.90625 
L 39.796875 0 
z
" id="DejaVuSans-86"/>
      <path d="M 59.515625 10.40625 
L 59.515625 29.984375 
L 43.40625 29.984375 
L 43.40625 38.09375 
L 69.28125 38.09375 
L 69.28125 6.78125 
Q 63.578125 2.734375 56.6875 0.65625 
Q 49.8125 -1.421875 42 -1.421875 
Q 24.90625 -1.421875 15.25 8.5625 
Q 5.609375 18.5625 5.609375 36.375 
Q 5.609375 54.25 15.25 64.234375 
Q 24.90625 74.21875 42 74.21875 
Q 49.125 74.21875 55.546875 72.453125 
Q 61.96875 70.703125 67.390625 67.28125 
L 67.390625 56.78125 
Q 61.921875 61.421875 55.765625 63.765625 
Q 49.609375 66.109375 42.828125 66.109375 
Q 29.4375 66.109375 22.71875 58.640625 
Q 16.015625 51.171875 16.015625 36.375 
Q 16.015625 21.625 22.71875 14.15625 
Q 29.4375 6.6875 42.828125 6.6875 
Q 48.046875 6.6875 52.140625 7.59375 
Q 56.25 8.5 59.515625 10.40625 
z
" id="DejaVuSans-71"/>
      <path d="M 10.984375 1.515625 
L 10.984375 10.5 
Q 14.703125 8.734375 18.5 7.8125 
Q 22.3125 6.890625 25.984375 6.890625 
Q 35.75 6.890625 40.890625 13.453125 
Q 46.046875 20.015625 46.78125 33.40625 
Q 43.953125 29.203125 39.59375 26.953125 
Q 35.25 24.703125 29.984375 24.703125 
Q 19.046875 24.703125 12.671875 31.3125 
Q 6.296875 37.9375 6.296875 49.421875 
Q 6.296875 60.640625 12.9375 67.421875 
Q 19.578125 74.21875 30.609375 74.21875 
Q 43.265625 74.21875 49.921875 64.515625 
Q 56.59375 54.828125 56.59375 36.375 
Q 56.59375 19.140625 48.40625 8.859375 
Q 40.234375 -1.421875 26.421875 -1.421875 
Q 22.703125 -1.421875 18.890625 -0.6875 
Q 15.09375 0.046875 10.984375 1.515625 
z
M 30.609375 32.421875 
Q 37.25 32.421875 41.125 36.953125 
Q 45.015625 41.5 45.015625 49.421875 
Q 45.015625 57.28125 41.125 61.84375 
Q 37.25 66.40625 30.609375 66.40625 
Q 23.96875 66.40625 20.09375 61.84375 
Q 16.21875 57.28125 16.21875 49.421875 
Q 16.21875 41.5 20.09375 36.953125 
Q 23.96875 32.421875 30.609375 32.421875 
z
" id="DejaVuSans-57"/>
     </defs>
     <g transform="translate(1218.804688 117.676563)scale(0.1 -0.1)">
      <use xlink:href="#DejaVuSans-86"/>
      <use x="68.408203" xlink:href="#DejaVuSans-71"/>
      <use x="145.898438" xlink:href="#DejaVuSans-71"/>
      <use x="223.388672" xlink:href="#DejaVuSans-49"/>
      <use x="287.011719" xlink:href="#DejaVuSans-57"/>
     </g>
    </g>
    <g id="line2d_27">
     <path d="M 1190.804688 128.854688 
L 1210.804688 128.854688 
" style="fill:none;stroke:#2ca02c;stroke-linecap:square;stroke-width:1.5;"/>
    </g>
    <g id="line2d_28"/>
    <g id="text_17">
     <!-- ResNet50V2 -->
     <defs>
      <path d="M 44.390625 34.1875 
Q 47.5625 33.109375 50.5625 29.59375 
Q 53.5625 26.078125 56.59375 19.921875 
L 66.609375 0 
L 56 0 
L 46.6875 18.703125 
Q 43.0625 26.03125 39.671875 28.421875 
Q 36.28125 30.8125 30.421875 30.8125 
L 19.671875 30.8125 
L 19.671875 0 
L 9.8125 0 
L 9.8125 72.90625 
L 32.078125 72.90625 
Q 44.578125 72.90625 50.734375 67.671875 
Q 56.890625 62.453125 56.890625 51.90625 
Q 56.890625 45.015625 53.6875 40.46875 
Q 50.484375 35.9375 44.390625 34.1875 
z
M 19.671875 64.796875 
L 19.671875 38.921875 
L 32.078125 38.921875 
Q 39.203125 38.921875 42.84375 42.21875 
Q 46.484375 45.515625 46.484375 51.90625 
Q 46.484375 58.296875 42.84375 61.546875 
Q 39.203125 64.796875 32.078125 64.796875 
z
" id="DejaVuSans-82"/>
      <path d="M 10.796875 72.90625 
L 49.515625 72.90625 
L 49.515625 64.59375 
L 19.828125 64.59375 
L 19.828125 46.734375 
Q 21.96875 47.46875 24.109375 47.828125 
Q 26.265625 48.1875 28.421875 48.1875 
Q 40.625 48.1875 47.75 41.5 
Q 54.890625 34.8125 54.890625 23.390625 
Q 54.890625 11.625 47.5625 5.09375 
Q 40.234375 -1.421875 26.90625 -1.421875 
Q 22.3125 -1.421875 17.546875 -0.640625 
Q 12.796875 0.140625 7.71875 1.703125 
L 7.71875 11.625 
Q 12.109375 9.234375 16.796875 8.0625 
Q 21.484375 6.890625 26.703125 6.890625 
Q 35.15625 6.890625 40.078125 11.328125 
Q 45.015625 15.765625 45.015625 23.390625 
Q 45.015625 31 40.078125 35.4375 
Q 35.15625 39.890625 26.703125 39.890625 
Q 22.75 39.890625 18.8125 39.015625 
Q 14.890625 38.140625 10.796875 36.28125 
z
" id="DejaVuSans-53"/>
     </defs>
     <g transform="translate(1218.804688 132.354688)scale(0.1 -0.1)">
      <use xlink:href="#DejaVuSans-82"/>
      <use x="64.982422" xlink:href="#DejaVuSans-101"/>
      <use x="126.505859" xlink:href="#DejaVuSans-115"/>
      <use x="178.605469" xlink:href="#DejaVuSans-78"/>
      <use x="253.410156" xlink:href="#DejaVuSans-101"/>
      <use x="314.933594" xlink:href="#DejaVuSans-116"/>
      <use x="354.142578" xlink:href="#DejaVuSans-53"/>
      <use x="417.765625" xlink:href="#DejaVuSans-48"/>
      <use x="481.388672" xlink:href="#DejaVuSans-86"/>
      <use x="549.796875" xlink:href="#DejaVuSans-50"/>
     </g>
    </g>
    <g id="line2d_29">
     <path d="M 1190.804688 143.532812 
L 1210.804688 143.532812 
" style="fill:none;stroke:#d62728;stroke-linecap:square;stroke-width:1.5;"/>
    </g>
    <g id="line2d_30"/>
    <g id="text_18">
     <!-- ResNet50 -->
     <g transform="translate(1218.804688 147.032812)scale(0.1 -0.1)">
      <use xlink:href="#DejaVuSans-82"/>
      <use x="64.982422" xlink:href="#DejaVuSans-101"/>
      <use x="126.505859" xlink:href="#DejaVuSans-115"/>
      <use x="178.605469" xlink:href="#DejaVuSans-78"/>
      <use x="253.410156" xlink:href="#DejaVuSans-101"/>
      <use x="314.933594" xlink:href="#DejaVuSans-116"/>
      <use x="354.142578" xlink:href="#DejaVuSans-53"/>
      <use x="417.765625" xlink:href="#DejaVuSans-48"/>
     </g>
    </g>
    <g id="line2d_31">
     <path d="M 1190.804688 158.210938 
L 1210.804688 158.210938 
" style="fill:none;stroke:#9467bd;stroke-linecap:square;stroke-width:1.5;"/>
    </g>
    <g id="line2d_32"/>
    <g id="text_19">
     <!-- InceptionV3 -->
     <defs>
      <path d="M 9.8125 72.90625 
L 19.671875 72.90625 
L 19.671875 0 
L 9.8125 0 
z
" id="DejaVuSans-73"/>
      <path d="M 48.78125 52.59375 
L 48.78125 44.1875 
Q 44.96875 46.296875 41.140625 47.34375 
Q 37.3125 48.390625 33.40625 48.390625 
Q 24.65625 48.390625 19.8125 42.84375 
Q 14.984375 37.3125 14.984375 27.296875 
Q 14.984375 17.28125 19.8125 11.734375 
Q 24.65625 6.203125 33.40625 6.203125 
Q 37.3125 6.203125 41.140625 7.25 
Q 44.96875 8.296875 48.78125 10.40625 
L 48.78125 2.09375 
Q 45.015625 0.34375 40.984375 -0.53125 
Q 36.96875 -1.421875 32.421875 -1.421875 
Q 20.0625 -1.421875 12.78125 6.34375 
Q 5.515625 14.109375 5.515625 27.296875 
Q 5.515625 40.671875 12.859375 48.328125 
Q 20.21875 56 33.015625 56 
Q 37.15625 56 41.109375 55.140625 
Q 45.0625 54.296875 48.78125 52.59375 
z
" id="DejaVuSans-99"/>
      <path d="M 9.421875 54.6875 
L 18.40625 54.6875 
L 18.40625 0 
L 9.421875 0 
z
M 9.421875 75.984375 
L 18.40625 75.984375 
L 18.40625 64.59375 
L 9.421875 64.59375 
z
" id="DejaVuSans-105"/>
      <path d="M 40.578125 39.3125 
Q 47.65625 37.796875 51.625 33 
Q 55.609375 28.21875 55.609375 21.1875 
Q 55.609375 10.40625 48.1875 4.484375 
Q 40.765625 -1.421875 27.09375 -1.421875 
Q 22.515625 -1.421875 17.65625 -0.515625 
Q 12.796875 0.390625 7.625 2.203125 
L 7.625 11.71875 
Q 11.71875 9.328125 16.59375 8.109375 
Q 21.484375 6.890625 26.8125 6.890625 
Q 36.078125 6.890625 40.9375 10.546875 
Q 45.796875 14.203125 45.796875 21.1875 
Q 45.796875 27.640625 41.28125 31.265625 
Q 36.765625 34.90625 28.71875 34.90625 
L 20.21875 34.90625 
L 20.21875 43.015625 
L 29.109375 43.015625 
Q 36.375 43.015625 40.234375 45.921875 
Q 44.09375 48.828125 44.09375 54.296875 
Q 44.09375 59.90625 40.109375 62.90625 
Q 36.140625 65.921875 28.71875 65.921875 
Q 24.65625 65.921875 20.015625 65.03125 
Q 15.375 64.15625 9.8125 62.3125 
L 9.8125 71.09375 
Q 15.4375 72.65625 20.34375 73.4375 
Q 25.25 74.21875 29.59375 74.21875 
Q 40.828125 74.21875 47.359375 69.109375 
Q 53.90625 64.015625 53.90625 55.328125 
Q 53.90625 49.265625 50.4375 45.09375 
Q 46.96875 40.921875 40.578125 39.3125 
z
" id="DejaVuSans-51"/>
     </defs>
     <g transform="translate(1218.804688 161.710938)scale(0.1 -0.1)">
      <use xlink:href="#DejaVuSans-73"/>
      <use x="29.492188" xlink:href="#DejaVuSans-110"/>
      <use x="92.871094" xlink:href="#DejaVuSans-99"/>
      <use x="147.851562" xlink:href="#DejaVuSans-101"/>
      <use x="209.375" xlink:href="#DejaVuSans-112"/>
      <use x="272.851562" xlink:href="#DejaVuSans-116"/>
      <use x="312.060547" xlink:href="#DejaVuSans-105"/>
      <use x="339.84375" xlink:href="#DejaVuSans-111"/>
      <use x="401.025391" xlink:href="#DejaVuSans-110"/>
      <use x="464.404297" xlink:href="#DejaVuSans-86"/>
      <use x="532.8125" xlink:href="#DejaVuSans-51"/>
     </g>
    </g>
    <g id="line2d_33">
     <path d="M 1190.804688 172.889063 
L 1210.804688 172.889063 
" style="fill:none;stroke:#8c564b;stroke-linecap:square;stroke-width:1.5;"/>
    </g>
    <g id="line2d_34"/>
    <g id="text_20">
     <!-- MobileNet -->
     <defs>
      <path d="M 9.8125 72.90625 
L 24.515625 72.90625 
L 43.109375 23.296875 
L 61.8125 72.90625 
L 76.515625 72.90625 
L 76.515625 0 
L 66.890625 0 
L 66.890625 64.015625 
L 48.09375 14.015625 
L 38.1875 14.015625 
L 19.390625 64.015625 
L 19.390625 0 
L 9.8125 0 
z
" id="DejaVuSans-77"/>
      <path d="M 48.6875 27.296875 
Q 48.6875 37.203125 44.609375 42.84375 
Q 40.53125 48.484375 33.40625 48.484375 
Q 26.265625 48.484375 22.1875 42.84375 
Q 18.109375 37.203125 18.109375 27.296875 
Q 18.109375 17.390625 22.1875 11.75 
Q 26.265625 6.109375 33.40625 6.109375 
Q 40.53125 6.109375 44.609375 11.75 
Q 48.6875 17.390625 48.6875 27.296875 
z
M 18.109375 46.390625 
Q 20.953125 51.265625 25.265625 53.625 
Q 29.59375 56 35.59375 56 
Q 45.5625 56 51.78125 48.09375 
Q 58.015625 40.1875 58.015625 27.296875 
Q 58.015625 14.40625 51.78125 6.484375 
Q 45.5625 -1.421875 35.59375 -1.421875 
Q 29.59375 -1.421875 25.265625 0.953125 
Q 20.953125 3.328125 18.109375 8.203125 
L 18.109375 0 
L 9.078125 0 
L 9.078125 75.984375 
L 18.109375 75.984375 
z
" id="DejaVuSans-98"/>
      <path d="M 9.421875 75.984375 
L 18.40625 75.984375 
L 18.40625 0 
L 9.421875 0 
z
" id="DejaVuSans-108"/>
     </defs>
     <g transform="translate(1218.804688 176.389063)scale(0.1 -0.1)">
      <use xlink:href="#DejaVuSans-77"/>
      <use x="86.279297" xlink:href="#DejaVuSans-111"/>
      <use x="147.460938" xlink:href="#DejaVuSans-98"/>
      <use x="210.9375" xlink:href="#DejaVuSans-105"/>
      <use x="238.720703" xlink:href="#DejaVuSans-108"/>
      <use x="266.503906" xlink:href="#DejaVuSans-101"/>
      <use x="328.027344" xlink:href="#DejaVuSans-78"/>
      <use x="402.832031" xlink:href="#DejaVuSans-101"/>
      <use x="464.355469" xlink:href="#DejaVuSans-116"/>
     </g>
    </g>
    <g id="line2d_35">
     <path d="M 1190.804688 187.567188 
L 1210.804688 187.567188 
" style="fill:none;stroke:#e377c2;stroke-linecap:square;stroke-width:1.5;"/>
    </g>
    <g id="line2d_36"/>
    <g id="text_21">
     <!-- Xception -->
     <defs>
      <path d="M 6.296875 72.90625 
L 16.890625 72.90625 
L 35.015625 45.796875 
L 53.21875 72.90625 
L 63.8125 72.90625 
L 40.375 37.890625 
L 65.375 0 
L 54.78125 0 
L 34.28125 31 
L 13.625 0 
L 2.984375 0 
L 29 38.921875 
z
" id="DejaVuSans-88"/>
     </defs>
     <g transform="translate(1218.804688 191.067188)scale(0.1 -0.1)">
      <use xlink:href="#DejaVuSans-88"/>
      <use x="68.505859" xlink:href="#DejaVuSans-99"/>
      <use x="123.486328" xlink:href="#DejaVuSans-101"/>
      <use x="185.009766" xlink:href="#DejaVuSans-112"/>
      <use x="248.486328" xlink:href="#DejaVuSans-116"/>
      <use x="287.695312" xlink:href="#DejaVuSans-105"/>
      <use x="315.478516" xlink:href="#DejaVuSans-111"/>
      <use x="376.660156" xlink:href="#DejaVuSans-110"/>
     </g>
    </g>
    <g id="line2d_37">
     <path d="M 1190.804688 202.245312 
L 1210.804688 202.245312 
" style="fill:none;stroke:#7f7f7f;stroke-linecap:square;stroke-width:1.5;"/>
    </g>
    <g id="line2d_38"/>
    <g id="text_22">
     <!-- default -->
     <defs>
      <path d="M 45.40625 46.390625 
L 45.40625 75.984375 
L 54.390625 75.984375 
L 54.390625 0 
L 45.40625 0 
L 45.40625 8.203125 
Q 42.578125 3.328125 38.25 0.953125 
Q 33.9375 -1.421875 27.875 -1.421875 
Q 17.96875 -1.421875 11.734375 6.484375 
Q 5.515625 14.40625 5.515625 27.296875 
Q 5.515625 40.1875 11.734375 48.09375 
Q 17.96875 56 27.875 56 
Q 33.9375 56 38.25 53.625 
Q 42.578125 51.265625 45.40625 46.390625 
z
M 14.796875 27.296875 
Q 14.796875 17.390625 18.875 11.75 
Q 22.953125 6.109375 30.078125 6.109375 
Q 37.203125 6.109375 41.296875 11.75 
Q 45.40625 17.390625 45.40625 27.296875 
Q 45.40625 37.203125 41.296875 42.84375 
Q 37.203125 48.484375 30.078125 48.484375 
Q 22.953125 48.484375 18.875 42.84375 
Q 14.796875 37.203125 14.796875 27.296875 
z
" id="DejaVuSans-100"/>
      <path d="M 37.109375 75.984375 
L 37.109375 68.5 
L 28.515625 68.5 
Q 23.6875 68.5 21.796875 66.546875 
Q 19.921875 64.59375 19.921875 59.515625 
L 19.921875 54.6875 
L 34.71875 54.6875 
L 34.71875 47.703125 
L 19.921875 47.703125 
L 19.921875 0 
L 10.890625 0 
L 10.890625 47.703125 
L 2.296875 47.703125 
L 2.296875 54.6875 
L 10.890625 54.6875 
L 10.890625 58.5 
Q 10.890625 67.625 15.140625 71.796875 
Q 19.390625 75.984375 28.609375 75.984375 
z
" id="DejaVuSans-102"/>
      <path d="M 34.28125 27.484375 
Q 23.390625 27.484375 19.1875 25 
Q 14.984375 22.515625 14.984375 16.5 
Q 14.984375 11.71875 18.140625 8.90625 
Q 21.296875 6.109375 26.703125 6.109375 
Q 34.1875 6.109375 38.703125 11.40625 
Q 43.21875 16.703125 43.21875 25.484375 
L 43.21875 27.484375 
z
M 52.203125 31.203125 
L 52.203125 0 
L 43.21875 0 
L 43.21875 8.296875 
Q 40.140625 3.328125 35.546875 0.953125 
Q 30.953125 -1.421875 24.3125 -1.421875 
Q 15.921875 -1.421875 10.953125 3.296875 
Q 6 8.015625 6 15.921875 
Q 6 25.140625 12.171875 29.828125 
Q 18.359375 34.515625 30.609375 34.515625 
L 43.21875 34.515625 
L 43.21875 35.40625 
Q 43.21875 41.609375 39.140625 45 
Q 35.0625 48.390625 27.6875 48.390625 
Q 23 48.390625 18.546875 47.265625 
Q 14.109375 46.140625 10.015625 43.890625 
L 10.015625 52.203125 
Q 14.9375 54.109375 19.578125 55.046875 
Q 24.21875 56 28.609375 56 
Q 40.484375 56 46.34375 49.84375 
Q 52.203125 43.703125 52.203125 31.203125 
z
" id="DejaVuSans-97"/>
      <path d="M 8.5 21.578125 
L 8.5 54.6875 
L 17.484375 54.6875 
L 17.484375 21.921875 
Q 17.484375 14.15625 20.5 10.265625 
Q 23.53125 6.390625 29.59375 6.390625 
Q 36.859375 6.390625 41.078125 11.03125 
Q 45.3125 15.671875 45.3125 23.6875 
L 45.3125 54.6875 
L 54.296875 54.6875 
L 54.296875 0 
L 45.3125 0 
L 45.3125 8.40625 
Q 42.046875 3.421875 37.71875 1 
Q 33.40625 -1.421875 27.6875 -1.421875 
Q 18.265625 -1.421875 13.375 4.4375 
Q 8.5 10.296875 8.5 21.578125 
z
M 31.109375 56 
z
" id="DejaVuSans-117"/>
     </defs>
     <g transform="translate(1218.804688 205.745312)scale(0.1 -0.1)">
      <use xlink:href="#DejaVuSans-100"/>
      <use x="63.476562" xlink:href="#DejaVuSans-101"/>
      <use x="125" xlink:href="#DejaVuSans-102"/>
      <use x="160.205078" xlink:href="#DejaVuSans-97"/>
      <use x="221.484375" xlink:href="#DejaVuSans-117"/>
      <use x="284.863281" xlink:href="#DejaVuSans-108"/>
      <use x="312.646484" xlink:href="#DejaVuSans-116"/>
     </g>
    </g>
    <g id="line2d_39">
     <path d="M 1190.804688 216.923437 
L 1210.804688 216.923437 
" style="fill:none;stroke:#bcbd22;stroke-linecap:square;stroke-width:1.5;"/>
    </g>
    <g id="line2d_40"/>
    <g id="text_23">
     <!-- VGG16 -->
     <g transform="translate(1218.804688 220.423437)scale(0.1 -0.1)">
      <use xlink:href="#DejaVuSans-86"/>
      <use x="68.408203" xlink:href="#DejaVuSans-71"/>
      <use x="145.898438" xlink:href="#DejaVuSans-71"/>
      <use x="223.388672" xlink:href="#DejaVuSans-49"/>
      <use x="287.011719" xlink:href="#DejaVuSans-54"/>
     </g>
    </g>
   </g>
  </g>
 </g>
 <defs>
  <clipPath id="pf245aebb97">
   <rect height="543.6" width="1116" x="180" y="86.4"/>
  </clipPath>
 </defs>
</svg>
