<?xml version="1.0" encoding="utf-8" standalone="no"?>
<!DOCTYPE svg PUBLIC "-//W3C//DTD SVG 1.1//EN"
  "http://www.w3.org/Graphics/SVG/1.1/DTD/svg11.dtd">
<!-- Created with matplotlib (https://matplotlib.org/) -->
<svg height="720pt" version="1.1" viewBox="0 0 1440 720" width="1440pt" xmlns="http://www.w3.org/2000/svg" xmlns:xlink="http://www.w3.org/1999/xlink">
 <defs>
  <style type="text/css">
*{stroke-linecap:butt;stroke-linejoin:round;}
  </style>
 </defs>
 <g id="figure_1">
  <g id="patch_1">
   <path d="M 0 720 
L 1440 720 
L 1440 0 
L 0 0 
z
" style="fill:#ffffff;"/>
  </g>
  <g id="axes_1">
   <g id="patch_2">
    <path d="M 180 630 
L 1296 630 
L 1296 86.4 
L 180 86.4 
z
" style="fill:#ffffff;"/>
   </g>
   <g id="matplotlib.axis_1">
    <g id="xtick_1">
     <g id="line2d_1">
      <defs>
       <path d="M 0 0 
L 0 3.5 
" id="m991ce61bb1" style="stroke:#000000;stroke-width:0.8;"/>
      </defs>
      <g>
       <use style="stroke:#000000;stroke-width:0.8;" x="230.727273" xlink:href="#m991ce61bb1" y="630"/>
      </g>
     </g>
     <g id="text_1">
      <!-- 0 -->
      <defs>
       <path d="M 31.78125 66.40625 
Q 24.171875 66.40625 20.328125 58.90625 
Q 16.5 51.421875 16.5 36.375 
Q 16.5 21.390625 20.328125 13.890625 
Q 24.171875 6.390625 31.78125 6.390625 
Q 39.453125 6.390625 43.28125 13.890625 
Q 47.125 21.390625 47.125 36.375 
Q 47.125 51.421875 43.28125 58.90625 
Q 39.453125 66.40625 31.78125 66.40625 
z
M 31.78125 74.21875 
Q 44.046875 74.21875 50.515625 64.515625 
Q 56.984375 54.828125 56.984375 36.375 
Q 56.984375 17.96875 50.515625 8.265625 
Q 44.046875 -1.421875 31.78125 -1.421875 
Q 19.53125 -1.421875 13.0625 8.265625 
Q 6.59375 17.96875 6.59375 36.375 
Q 6.59375 54.828125 13.0625 64.515625 
Q 19.53125 74.21875 31.78125 74.21875 
z
" id="DejaVuSans-48"/>
      </defs>
      <g transform="translate(227.546023 644.598438)scale(0.1 -0.1)">
       <use xlink:href="#DejaVuSans-48"/>
      </g>
     </g>
    </g>
    <g id="xtick_2">
     <g id="line2d_2">
      <g>
       <use style="stroke:#000000;stroke-width:0.8;" x="435.68595" xlink:href="#m991ce61bb1" y="630"/>
      </g>
     </g>
     <g id="text_2">
      <!-- 20 -->
      <defs>
       <path d="M 19.1875 8.296875 
L 53.609375 8.296875 
L 53.609375 0 
L 7.328125 0 
L 7.328125 8.296875 
Q 12.9375 14.109375 22.625 23.890625 
Q 32.328125 33.6875 34.8125 36.53125 
Q 39.546875 41.84375 41.421875 45.53125 
Q 43.3125 49.21875 43.3125 52.78125 
Q 43.3125 58.59375 39.234375 62.25 
Q 35.15625 65.921875 28.609375 65.921875 
Q 23.96875 65.921875 18.8125 64.3125 
Q 13.671875 62.703125 7.8125 59.421875 
L 7.8125 69.390625 
Q 13.765625 71.78125 18.9375 73 
Q 24.125 74.21875 28.421875 74.21875 
Q 39.75 74.21875 46.484375 68.546875 
Q 53.21875 62.890625 53.21875 53.421875 
Q 53.21875 48.921875 51.53125 44.890625 
Q 49.859375 40.875 45.40625 35.40625 
Q 44.1875 33.984375 37.640625 27.21875 
Q 31.109375 20.453125 19.1875 8.296875 
z
" id="DejaVuSans-50"/>
      </defs>
      <g transform="translate(429.32345 644.598438)scale(0.1 -0.1)">
       <use xlink:href="#DejaVuSans-50"/>
       <use x="63.623047" xlink:href="#DejaVuSans-48"/>
      </g>
     </g>
    </g>
    <g id="xtick_3">
     <g id="line2d_3">
      <g>
       <use style="stroke:#000000;stroke-width:0.8;" x="640.644628" xlink:href="#m991ce61bb1" y="630"/>
      </g>
     </g>
     <g id="text_3">
      <!-- 40 -->
      <defs>
       <path d="M 37.796875 64.3125 
L 12.890625 25.390625 
L 37.796875 25.390625 
z
M 35.203125 72.90625 
L 47.609375 72.90625 
L 47.609375 25.390625 
L 58.015625 25.390625 
L 58.015625 17.1875 
L 47.609375 17.1875 
L 47.609375 0 
L 37.796875 0 
L 37.796875 17.1875 
L 4.890625 17.1875 
L 4.890625 26.703125 
z
" id="DejaVuSans-52"/>
      </defs>
      <g transform="translate(634.282128 644.598438)scale(0.1 -0.1)">
       <use xlink:href="#DejaVuSans-52"/>
       <use x="63.623047" xlink:href="#DejaVuSans-48"/>
      </g>
     </g>
    </g>
    <g id="xtick_4">
     <g id="line2d_4">
      <g>
       <use style="stroke:#000000;stroke-width:0.8;" x="845.603306" xlink:href="#m991ce61bb1" y="630"/>
      </g>
     </g>
     <g id="text_4">
      <!-- 60 -->
      <defs>
       <path d="M 33.015625 40.375 
Q 26.375 40.375 22.484375 35.828125 
Q 18.609375 31.296875 18.609375 23.390625 
Q 18.609375 15.53125 22.484375 10.953125 
Q 26.375 6.390625 33.015625 6.390625 
Q 39.65625 6.390625 43.53125 10.953125 
Q 47.40625 15.53125 47.40625 23.390625 
Q 47.40625 31.296875 43.53125 35.828125 
Q 39.65625 40.375 33.015625 40.375 
z
M 52.59375 71.296875 
L 52.59375 62.3125 
Q 48.875 64.0625 45.09375 64.984375 
Q 41.3125 65.921875 37.59375 65.921875 
Q 27.828125 65.921875 22.671875 59.328125 
Q 17.53125 52.734375 16.796875 39.40625 
Q 19.671875 43.65625 24.015625 45.921875 
Q 28.375 48.1875 33.59375 48.1875 
Q 44.578125 48.1875 50.953125 41.515625 
Q 57.328125 34.859375 57.328125 23.390625 
Q 57.328125 12.15625 50.6875 5.359375 
Q 44.046875 -1.421875 33.015625 -1.421875 
Q 20.359375 -1.421875 13.671875 8.265625 
Q 6.984375 17.96875 6.984375 36.375 
Q 6.984375 53.65625 15.1875 63.9375 
Q 23.390625 74.21875 37.203125 74.21875 
Q 40.921875 74.21875 44.703125 73.484375 
Q 48.484375 72.75 52.59375 71.296875 
z
" id="DejaVuSans-54"/>
      </defs>
      <g transform="translate(839.240806 644.598438)scale(0.1 -0.1)">
       <use xlink:href="#DejaVuSans-54"/>
       <use x="63.623047" xlink:href="#DejaVuSans-48"/>
      </g>
     </g>
    </g>
    <g id="xtick_5">
     <g id="line2d_5">
      <g>
       <use style="stroke:#000000;stroke-width:0.8;" x="1050.561983" xlink:href="#m991ce61bb1" y="630"/>
      </g>
     </g>
     <g id="text_5">
      <!-- 80 -->
      <defs>
       <path d="M 31.78125 34.625 
Q 24.75 34.625 20.71875 30.859375 
Q 16.703125 27.09375 16.703125 20.515625 
Q 16.703125 13.921875 20.71875 10.15625 
Q 24.75 6.390625 31.78125 6.390625 
Q 38.8125 6.390625 42.859375 10.171875 
Q 46.921875 13.96875 46.921875 20.515625 
Q 46.921875 27.09375 42.890625 30.859375 
Q 38.875 34.625 31.78125 34.625 
z
M 21.921875 38.8125 
Q 15.578125 40.375 12.03125 44.71875 
Q 8.5 49.078125 8.5 55.328125 
Q 8.5 64.0625 14.71875 69.140625 
Q 20.953125 74.21875 31.78125 74.21875 
Q 42.671875 74.21875 48.875 69.140625 
Q 55.078125 64.0625 55.078125 55.328125 
Q 55.078125 49.078125 51.53125 44.71875 
Q 48 40.375 41.703125 38.8125 
Q 48.828125 37.15625 52.796875 32.3125 
Q 56.78125 27.484375 56.78125 20.515625 
Q 56.78125 9.90625 50.3125 4.234375 
Q 43.84375 -1.421875 31.78125 -1.421875 
Q 19.734375 -1.421875 13.25 4.234375 
Q 6.78125 9.90625 6.78125 20.515625 
Q 6.78125 27.484375 10.78125 32.3125 
Q 14.796875 37.15625 21.921875 38.8125 
z
M 18.3125 54.390625 
Q 18.3125 48.734375 21.84375 45.5625 
Q 25.390625 42.390625 31.78125 42.390625 
Q 38.140625 42.390625 41.71875 45.5625 
Q 45.3125 48.734375 45.3125 54.390625 
Q 45.3125 60.0625 41.71875 63.234375 
Q 38.140625 66.40625 31.78125 66.40625 
Q 25.390625 66.40625 21.84375 63.234375 
Q 18.3125 60.0625 18.3125 54.390625 
z
" id="DejaVuSans-56"/>
      </defs>
      <g transform="translate(1044.199483 644.598438)scale(0.1 -0.1)">
       <use xlink:href="#DejaVuSans-56"/>
       <use x="63.623047" xlink:href="#DejaVuSans-48"/>
      </g>
     </g>
    </g>
    <g id="xtick_6">
     <g id="line2d_6">
      <g>
       <use style="stroke:#000000;stroke-width:0.8;" x="1255.520661" xlink:href="#m991ce61bb1" y="630"/>
      </g>
     </g>
     <g id="text_6">
      <!-- 100 -->
      <defs>
       <path d="M 12.40625 8.296875 
L 28.515625 8.296875 
L 28.515625 63.921875 
L 10.984375 60.40625 
L 10.984375 69.390625 
L 28.421875 72.90625 
L 38.28125 72.90625 
L 38.28125 8.296875 
L 54.390625 8.296875 
L 54.390625 0 
L 12.40625 0 
z
" id="DejaVuSans-49"/>
      </defs>
      <g transform="translate(1245.976911 644.598438)scale(0.1 -0.1)">
       <use xlink:href="#DejaVuSans-49"/>
       <use x="63.623047" xlink:href="#DejaVuSans-48"/>
       <use x="127.246094" xlink:href="#DejaVuSans-48"/>
      </g>
     </g>
    </g>
   </g>
   <g id="matplotlib.axis_2">
    <g id="ytick_1">
     <g id="line2d_7">
      <defs>
       <path d="M 0 0 
L -3.5 0 
" id="m70b57bb9e9" style="stroke:#000000;stroke-width:0.8;"/>
      </defs>
      <g>
       <use style="stroke:#000000;stroke-width:0.8;" x="180" xlink:href="#m70b57bb9e9" y="554.549024"/>
      </g>
     </g>
     <g id="text_7">
      <!-- 0.5 -->
      <defs>
       <path d="M 10.6875 12.40625 
L 21 12.40625 
L 21 0 
L 10.6875 0 
z
" id="DejaVuSans-46"/>
       <path d="M 10.796875 72.90625 
L 49.515625 72.90625 
L 49.515625 64.59375 
L 19.828125 64.59375 
L 19.828125 46.734375 
Q 21.96875 47.46875 24.109375 47.828125 
Q 26.265625 48.1875 28.421875 48.1875 
Q 40.625 48.1875 47.75 41.5 
Q 54.890625 34.8125 54.890625 23.390625 
Q 54.890625 11.625 47.5625 5.09375 
Q 40.234375 -1.421875 26.90625 -1.421875 
Q 22.3125 -1.421875 17.546875 -0.640625 
Q 12.796875 0.140625 7.71875 1.703125 
L 7.71875 11.625 
Q 12.109375 9.234375 16.796875 8.0625 
Q 21.484375 6.890625 26.703125 6.890625 
Q 35.15625 6.890625 40.078125 11.328125 
Q 45.015625 15.765625 45.015625 23.390625 
Q 45.015625 31 40.078125 35.4375 
Q 35.15625 39.890625 26.703125 39.890625 
Q 22.75 39.890625 18.8125 39.015625 
Q 14.890625 38.140625 10.796875 36.28125 
z
" id="DejaVuSans-53"/>
      </defs>
      <g transform="translate(157.096875 558.348243)scale(0.1 -0.1)">
       <use xlink:href="#DejaVuSans-48"/>
       <use x="63.623047" xlink:href="#DejaVuSans-46"/>
       <use x="95.410156" xlink:href="#DejaVuSans-53"/>
      </g>
     </g>
    </g>
    <g id="ytick_2">
     <g id="line2d_8">
      <g>
       <use style="stroke:#000000;stroke-width:0.8;" x="180" xlink:href="#m70b57bb9e9" y="465.861038"/>
      </g>
     </g>
     <g id="text_8">
      <!-- 0.6 -->
      <g transform="translate(157.096875 469.660256)scale(0.1 -0.1)">
       <use xlink:href="#DejaVuSans-48"/>
       <use x="63.623047" xlink:href="#DejaVuSans-46"/>
       <use x="95.410156" xlink:href="#DejaVuSans-54"/>
      </g>
     </g>
    </g>
    <g id="ytick_3">
     <g id="line2d_9">
      <g>
       <use style="stroke:#000000;stroke-width:0.8;" x="180" xlink:href="#m70b57bb9e9" y="377.173051"/>
      </g>
     </g>
     <g id="text_9">
      <!-- 0.7 -->
      <defs>
       <path d="M 8.203125 72.90625 
L 55.078125 72.90625 
L 55.078125 68.703125 
L 28.609375 0 
L 18.3125 0 
L 43.21875 64.59375 
L 8.203125 64.59375 
z
" id="DejaVuSans-55"/>
      </defs>
      <g transform="translate(157.096875 380.97227)scale(0.1 -0.1)">
       <use xlink:href="#DejaVuSans-48"/>
       <use x="63.623047" xlink:href="#DejaVuSans-46"/>
       <use x="95.410156" xlink:href="#DejaVuSans-55"/>
      </g>
     </g>
    </g>
    <g id="ytick_4">
     <g id="line2d_10">
      <g>
       <use style="stroke:#000000;stroke-width:0.8;" x="180" xlink:href="#m70b57bb9e9" y="288.485064"/>
      </g>
     </g>
     <g id="text_10">
      <!-- 0.8 -->
      <g transform="translate(157.096875 292.284283)scale(0.1 -0.1)">
       <use xlink:href="#DejaVuSans-48"/>
       <use x="63.623047" xlink:href="#DejaVuSans-46"/>
       <use x="95.410156" xlink:href="#DejaVuSans-56"/>
      </g>
     </g>
    </g>
    <g id="ytick_5">
     <g id="line2d_11">
      <g>
       <use style="stroke:#000000;stroke-width:0.8;" x="180" xlink:href="#m70b57bb9e9" y="199.797078"/>
      </g>
     </g>
     <g id="text_11">
      <!-- 0.9 -->
      <defs>
       <path d="M 10.984375 1.515625 
L 10.984375 10.5 
Q 14.703125 8.734375 18.5 7.8125 
Q 22.3125 6.890625 25.984375 6.890625 
Q 35.75 6.890625 40.890625 13.453125 
Q 46.046875 20.015625 46.78125 33.40625 
Q 43.953125 29.203125 39.59375 26.953125 
Q 35.25 24.703125 29.984375 24.703125 
Q 19.046875 24.703125 12.671875 31.3125 
Q 6.296875 37.9375 6.296875 49.421875 
Q 6.296875 60.640625 12.9375 67.421875 
Q 19.578125 74.21875 30.609375 74.21875 
Q 43.265625 74.21875 49.921875 64.515625 
Q 56.59375 54.828125 56.59375 36.375 
Q 56.59375 19.140625 48.40625 8.859375 
Q 40.234375 -1.421875 26.421875 -1.421875 
Q 22.703125 -1.421875 18.890625 -0.6875 
Q 15.09375 0.046875 10.984375 1.515625 
z
M 30.609375 32.421875 
Q 37.25 32.421875 41.125 36.953125 
Q 45.015625 41.5 45.015625 49.421875 
Q 45.015625 57.28125 41.125 61.84375 
Q 37.25 66.40625 30.609375 66.40625 
Q 23.96875 66.40625 20.09375 61.84375 
Q 16.21875 57.28125 16.21875 49.421875 
Q 16.21875 41.5 20.09375 36.953125 
Q 23.96875 32.421875 30.609375 32.421875 
z
" id="DejaVuSans-57"/>
      </defs>
      <g transform="translate(157.096875 203.596296)scale(0.1 -0.1)">
       <use xlink:href="#DejaVuSans-48"/>
       <use x="63.623047" xlink:href="#DejaVuSans-46"/>
       <use x="95.410156" xlink:href="#DejaVuSans-57"/>
      </g>
     </g>
    </g>
    <g id="ytick_6">
     <g id="line2d_12">
      <g>
       <use style="stroke:#000000;stroke-width:0.8;" x="180" xlink:href="#m70b57bb9e9" y="111.109091"/>
      </g>
     </g>
     <g id="text_12">
      <!-- 1.0 -->
      <g transform="translate(157.096875 114.90831)scale(0.1 -0.1)">
       <use xlink:href="#DejaVuSans-49"/>
       <use x="63.623047" xlink:href="#DejaVuSans-46"/>
       <use x="95.410156" xlink:href="#DejaVuSans-48"/>
      </g>
     </g>
    </g>
   </g>
   <g id="line2d_13">
    <path clip-path="url(#p31a548c10b)" d="M 230.727273 287.602573 
L 240.975207 186.118856 
L 251.22314 208.180509 
L 261.471074 128.758444 
L 271.719008 141.995446 
L 281.966942 146.407798 
L 292.214876 137.583095 
L 302.46281 141.995446 
L 312.710744 137.583095 
L 322.958678 141.995446 
L 333.206612 124.346093 
L 343.454545 111.109091 
L 353.702479 119.933741 
L 363.950413 111.109091 
L 374.198347 111.109091 
L 384.446281 111.109091 
L 394.694215 115.521442 
L 404.942149 115.521442 
L 415.190083 115.521442 
L 425.438017 115.521442 
L 435.68595 111.109091 
L 445.933884 115.521442 
L 456.181818 115.521442 
L 466.429752 115.521442 
L 476.677686 124.346093 
L 486.92562 115.521442 
L 497.173554 111.109091 
L 507.421488 111.109091 
L 517.669421 111.109091 
L 527.917355 115.521442 
L 538.165289 111.109091 
L 548.413223 115.521442 
L 558.661157 115.521442 
L 568.909091 119.933741 
L 579.157025 111.109091 
L 589.404959 111.109091 
L 599.652893 111.109091 
L 609.900826 111.109091 
L 620.14876 115.521442 
L 630.396694 111.109091 
L 640.644628 111.109091 
L 650.892562 111.109091 
L 661.140496 115.521442 
L 671.38843 111.109091 
L 681.636364 111.109091 
L 691.884298 111.109091 
L 702.132231 111.109091 
L 712.380165 111.109091 
L 722.628099 115.521442 
L 732.876033 111.109091 
L 743.123967 111.109091 
L 753.371901 111.109091 
L 763.619835 111.109091 
L 773.867769 111.109091 
L 784.115702 111.109091 
L 794.363636 111.109091 
L 804.61157 115.521442 
L 814.859504 115.521442 
L 825.107438 111.109091 
L 835.355372 115.521442 
L 845.603306 115.521442 
L 855.85124 111.109091 
L 866.099174 111.109091 
L 876.347107 115.521442 
L 886.595041 115.521442 
L 896.842975 111.109091 
L 907.090909 111.109091 
L 917.338843 111.109091 
L 927.586777 111.109091 
L 937.834711 111.109091 
L 948.082645 115.521442 
L 958.330579 111.109091 
L 968.578512 111.109091 
L 978.826446 111.109091 
L 989.07438 115.521442 
L 999.322314 115.521442 
L 1009.570248 111.109091 
L 1019.818182 111.109091 
L 1030.066116 111.109091 
L 1040.31405 111.109091 
L 1050.561983 111.109091 
L 1060.809917 119.933741 
L 1071.057851 111.109091 
L 1081.305785 111.109091 
L 1091.553719 111.109091 
L 1101.801653 111.109091 
L 1112.049587 111.109091 
L 1122.297521 111.109091 
L 1132.545455 111.109091 
L 1142.793388 111.109091 
L 1153.041322 111.109091 
L 1163.289256 111.109091 
L 1173.53719 111.109091 
L 1183.785124 111.109091 
L 1194.033058 115.521442 
L 1204.280992 111.109091 
L 1214.528926 115.521442 
L 1224.77686 111.109091 
L 1235.024793 111.109091 
L 1245.272727 111.109091 
" style="fill:none;stroke:#1f77b4;stroke-linecap:square;stroke-width:1.5;"/>
   </g>
   <g id="line2d_14">
    <path clip-path="url(#p31a548c10b)" d="M 230.727273 437.622051 
L 240.975207 190.531155 
L 251.22314 203.768157 
L 261.471074 177.294153 
L 271.719008 190.531155 
L 281.966942 164.057151 
L 292.214876 172.881802 
L 302.46281 208.180509 
L 312.710744 186.118856 
L 322.958678 172.881802 
L 333.206612 168.469503 
L 343.454545 150.820149 
L 353.702479 141.995446 
L 363.950413 146.407798 
L 374.198347 141.995446 
L 384.446281 141.995446 
L 394.694215 128.758444 
L 404.942149 155.232448 
L 415.190083 141.995446 
L 425.438017 172.881802 
L 435.68595 164.057151 
L 445.933884 172.881802 
L 456.181818 137.583095 
L 466.429752 146.407798 
L 476.677686 137.583095 
L 486.92562 133.170796 
L 497.173554 124.346093 
L 507.421488 119.933741 
L 517.669421 137.583095 
L 527.917355 124.346093 
L 538.165289 137.583095 
L 548.413223 137.583095 
L 558.661157 141.995446 
L 568.909091 141.995446 
L 579.157025 141.995446 
L 589.404959 124.346093 
L 599.652893 115.521442 
L 609.900826 128.758444 
L 620.14876 133.170796 
L 630.396694 133.170796 
L 640.644628 124.346093 
L 650.892562 141.995446 
L 661.140496 146.407798 
L 671.38843 168.469503 
L 681.636364 150.820149 
L 691.884298 172.881802 
L 702.132231 155.232448 
L 712.380165 137.583095 
L 722.628099 119.933741 
L 732.876033 124.346093 
L 743.123967 146.407798 
L 753.371901 128.758444 
L 763.619835 124.346093 
L 773.867769 119.933741 
L 784.115702 124.346093 
L 794.363636 124.346093 
L 804.61157 128.758444 
L 814.859504 119.933741 
L 825.107438 119.933741 
L 835.355372 124.346093 
L 845.603306 128.758444 
L 855.85124 119.933741 
L 866.099174 124.346093 
L 876.347107 115.521442 
L 886.595041 111.109091 
L 896.842975 128.758444 
L 907.090909 133.170796 
L 917.338843 128.758444 
L 927.586777 133.170796 
L 937.834711 124.346093 
L 948.082645 119.933741 
L 958.330579 137.583095 
L 968.578512 128.758444 
L 978.826446 115.521442 
L 989.07438 115.521442 
L 999.322314 111.109091 
L 1009.570248 124.346093 
L 1019.818182 119.933741 
L 1030.066116 119.933741 
L 1040.31405 115.521442 
L 1050.561983 124.346093 
L 1060.809917 119.933741 
L 1071.057851 124.346093 
L 1081.305785 115.521442 
L 1091.553719 115.521442 
L 1101.801653 115.521442 
L 1112.049587 133.170796 
L 1122.297521 119.933741 
L 1132.545455 115.521442 
L 1142.793388 111.109091 
L 1153.041322 111.109091 
L 1163.289256 115.521442 
L 1173.53719 133.170796 
L 1183.785124 115.521442 
L 1194.033058 115.521442 
L 1204.280992 119.933741 
L 1214.528926 124.346093 
L 1224.77686 119.933741 
L 1235.024793 115.521442 
L 1245.272727 115.521442 
" style="fill:none;stroke:#ff7f0e;stroke-linecap:square;stroke-width:1.5;"/>
   </g>
   <g id="line2d_15">
    <path clip-path="url(#p31a548c10b)" d="M 230.727273 296.427276 
L 240.975207 137.583095 
L 251.22314 119.933741 
L 261.471074 133.170796 
L 271.719008 124.346093 
L 281.966942 119.933741 
L 292.214876 124.346093 
L 302.46281 119.933741 
L 312.710744 124.346093 
L 322.958678 115.521442 
L 333.206612 124.346093 
L 343.454545 115.521442 
L 353.702479 119.933741 
L 363.950413 111.109091 
L 374.198347 115.521442 
L 384.446281 133.170796 
L 394.694215 128.758444 
L 404.942149 128.758444 
L 415.190083 124.346093 
L 425.438017 115.521442 
L 435.68595 111.109091 
L 445.933884 119.933741 
L 456.181818 124.346093 
L 466.429752 115.521442 
L 476.677686 111.109091 
L 486.92562 111.109091 
L 497.173554 119.933741 
L 507.421488 124.346093 
L 517.669421 115.521442 
L 527.917355 111.109091 
L 538.165289 115.521442 
L 548.413223 111.109091 
L 558.661157 111.109091 
L 568.909091 111.109091 
L 579.157025 111.109091 
L 589.404959 111.109091 
L 599.652893 119.933741 
L 609.900826 124.346093 
L 620.14876 124.346093 
L 630.396694 111.109091 
L 640.644628 111.109091 
L 650.892562 115.521442 
L 661.140496 111.109091 
L 671.38843 111.109091 
L 681.636364 111.109091 
L 691.884298 115.521442 
L 702.132231 111.109091 
L 712.380165 111.109091 
L 722.628099 111.109091 
L 732.876033 115.521442 
L 743.123967 111.109091 
L 753.371901 115.521442 
L 763.619835 115.521442 
L 773.867769 115.521442 
L 784.115702 119.933741 
L 794.363636 115.521442 
L 804.61157 115.521442 
L 814.859504 111.109091 
L 825.107438 111.109091 
L 835.355372 115.521442 
L 845.603306 111.109091 
L 855.85124 111.109091 
L 866.099174 111.109091 
L 876.347107 111.109091 
L 886.595041 111.109091 
L 896.842975 111.109091 
L 907.090909 111.109091 
L 917.338843 111.109091 
L 927.586777 111.109091 
L 937.834711 111.109091 
L 948.082645 111.109091 
L 958.330579 111.109091 
L 968.578512 111.109091 
L 978.826446 111.109091 
L 989.07438 111.109091 
L 999.322314 111.109091 
L 1009.570248 111.109091 
L 1019.818182 111.109091 
L 1030.066116 111.109091 
L 1040.31405 111.109091 
L 1050.561983 111.109091 
L 1060.809917 111.109091 
L 1071.057851 115.521442 
L 1081.305785 111.109091 
L 1091.553719 111.109091 
L 1101.801653 111.109091 
L 1112.049587 111.109091 
L 1122.297521 111.109091 
L 1132.545455 115.521442 
L 1142.793388 115.521442 
L 1153.041322 111.109091 
L 1163.289256 111.109091 
L 1173.53719 111.109091 
L 1183.785124 111.109091 
L 1194.033058 111.109091 
L 1204.280992 111.109091 
L 1214.528926 111.109091 
L 1224.77686 111.109091 
L 1235.024793 115.521442 
L 1245.272727 119.933741 
" style="fill:none;stroke:#2ca02c;stroke-linecap:square;stroke-width:1.5;"/>
   </g>
   <g id="line2d_16">
    <path clip-path="url(#p31a548c10b)" d="M 230.727273 547.930523 
L 240.975207 517.044168 
L 251.22314 455.271405 
L 261.471074 389.086342 
L 271.719008 415.560399 
L 281.966942 322.90128 
L 292.214876 375.84934 
L 302.46281 446.446754 
L 312.710744 490.570111 
L 322.958678 203.768157 
L 333.206612 243.479216 
L 343.454545 221.417511 
L 353.702479 247.891567 
L 363.950413 230.242214 
L 374.198347 292.014924 
L 384.446281 340.550633 
L 394.694215 446.446754 
L 404.942149 547.930523 
L 415.190083 503.807166 
L 425.438017 503.807166 
L 435.68595 503.807166 
L 445.933884 503.807166 
L 456.181818 358.199987 
L 466.429752 340.550633 
L 476.677686 296.427276 
L 486.92562 605.290909 
L 497.173554 605.290909 
L 507.421488 605.290909 
L 517.669421 605.290909 
L 527.917355 605.290909 
L 538.165289 605.290909 
L 548.413223 494.982463 
L 558.661157 503.807166 
L 568.909091 503.807166 
L 579.157025 503.807166 
L 589.404959 503.807166 
L 599.652893 503.807166 
L 609.900826 503.807166 
L 620.14876 503.807166 
L 630.396694 503.807166 
L 640.644628 503.807166 
L 650.892562 503.807166 
L 661.140496 503.807166 
L 671.38843 503.807166 
L 681.636364 503.807166 
L 691.884298 503.807166 
L 702.132231 503.807166 
L 712.380165 503.807166 
L 722.628099 503.807166 
L 732.876033 503.807166 
L 743.123967 503.807166 
L 753.371901 503.807166 
L 763.619835 503.807166 
L 773.867769 503.807166 
L 784.115702 503.807166 
L 794.363636 503.807166 
L 804.61157 503.807166 
L 814.859504 503.807166 
L 825.107438 503.807166 
L 835.355372 503.807166 
L 845.603306 503.807166 
L 855.85124 503.807166 
L 866.099174 503.807166 
L 876.347107 503.807166 
L 886.595041 503.807166 
L 896.842975 503.807166 
L 907.090909 503.807166 
L 917.338843 503.807166 
L 927.586777 503.807166 
L 937.834711 503.807166 
L 948.082645 503.807166 
L 958.330579 503.807166 
L 968.578512 503.807166 
L 978.826446 503.807166 
L 989.07438 503.807166 
L 999.322314 503.807166 
L 1009.570248 503.807166 
L 1019.818182 503.807166 
L 1030.066116 503.807166 
L 1040.31405 503.807166 
L 1050.561983 503.807166 
L 1060.809917 503.807166 
L 1071.057851 503.807166 
L 1081.305785 503.807166 
L 1091.553719 503.807166 
L 1101.801653 503.807166 
L 1112.049587 503.807166 
L 1122.297521 503.807166 
L 1132.545455 503.807166 
L 1142.793388 503.807166 
L 1153.041322 503.807166 
L 1163.289256 503.807166 
L 1173.53719 503.807166 
L 1183.785124 503.807166 
L 1194.033058 503.807166 
L 1204.280992 503.807166 
L 1214.528926 503.807166 
L 1224.77686 503.807166 
L 1235.024793 503.807166 
L 1245.272727 503.807166 
" style="fill:none;stroke:#d62728;stroke-linecap:square;stroke-width:1.5;"/>
   </g>
   <g id="line2d_17">
    <path clip-path="url(#p31a548c10b)" d="M 230.727273 340.550633 
L 240.975207 265.540921 
L 251.22314 159.6448 
L 261.471074 155.232448 
L 271.719008 155.232448 
L 281.966942 141.995446 
L 292.214876 128.758444 
L 302.46281 150.820149 
L 312.710744 133.170796 
L 322.958678 133.170796 
L 333.206612 128.758444 
L 343.454545 137.583095 
L 353.702479 137.583095 
L 363.950413 146.407798 
L 374.198347 124.346093 
L 384.446281 137.583095 
L 394.694215 128.758444 
L 404.942149 133.170796 
L 415.190083 128.758444 
L 425.438017 146.407798 
L 435.68595 150.820149 
L 445.933884 137.583095 
L 456.181818 128.758444 
L 466.429752 133.170796 
L 476.677686 133.170796 
L 486.92562 124.346093 
L 497.173554 133.170796 
L 507.421488 115.521442 
L 517.669421 115.521442 
L 527.917355 115.521442 
L 538.165289 119.933741 
L 548.413223 115.521442 
L 558.661157 124.346093 
L 568.909091 128.758444 
L 579.157025 128.758444 
L 589.404959 115.521442 
L 599.652893 141.995446 
L 609.900826 115.521442 
L 620.14876 124.346093 
L 630.396694 124.346093 
L 640.644628 111.109091 
L 650.892562 115.521442 
L 661.140496 124.346093 
L 671.38843 137.583095 
L 681.636364 133.170796 
L 691.884298 128.758444 
L 702.132231 119.933741 
L 712.380165 115.521442 
L 722.628099 124.346093 
L 732.876033 111.109091 
L 743.123967 111.109091 
L 753.371901 115.521442 
L 763.619835 124.346093 
L 773.867769 124.346093 
L 784.115702 137.583095 
L 794.363636 115.521442 
L 804.61157 119.933741 
L 814.859504 119.933741 
L 825.107438 111.109091 
L 835.355372 111.109091 
L 845.603306 115.521442 
L 855.85124 111.109091 
L 866.099174 111.109091 
L 876.347107 111.109091 
L 886.595041 119.933741 
L 896.842975 111.109091 
L 907.090909 115.521442 
L 917.338843 124.346093 
L 927.586777 115.521442 
L 937.834711 115.521442 
L 948.082645 115.521442 
L 958.330579 115.521442 
L 968.578512 111.109091 
L 978.826446 111.109091 
L 989.07438 111.109091 
L 999.322314 115.521442 
L 1009.570248 111.109091 
L 1019.818182 115.521442 
L 1030.066116 111.109091 
L 1040.31405 119.933741 
L 1050.561983 128.758444 
L 1060.809917 115.521442 
L 1071.057851 115.521442 
L 1081.305785 124.346093 
L 1091.553719 115.521442 
L 1101.801653 111.109091 
L 1112.049587 111.109091 
L 1122.297521 115.521442 
L 1132.545455 119.933741 
L 1142.793388 115.521442 
L 1153.041322 119.933741 
L 1163.289256 124.346093 
L 1173.53719 115.521442 
L 1183.785124 119.933741 
L 1194.033058 115.521442 
L 1204.280992 115.521442 
L 1214.528926 124.346093 
L 1224.77686 115.521442 
L 1235.024793 115.521442 
L 1245.272727 115.521442 
" style="fill:none;stroke:#9467bd;stroke-linecap:square;stroke-width:1.5;"/>
   </g>
   <g id="line2d_18">
    <path clip-path="url(#p31a548c10b)" d="M 230.727273 278.777923 
L 240.975207 199.355858 
L 251.22314 146.407798 
L 261.471074 119.933741 
L 271.719008 124.346093 
L 281.966942 128.758444 
L 292.214876 124.346093 
L 302.46281 111.109091 
L 312.710744 115.521442 
L 322.958678 111.109091 
L 333.206612 119.933741 
L 343.454545 115.521442 
L 353.702479 119.933741 
L 363.950413 115.521442 
L 374.198347 111.109091 
L 384.446281 111.109091 
L 394.694215 111.109091 
L 404.942149 115.521442 
L 415.190083 115.521442 
L 425.438017 115.521442 
L 435.68595 115.521442 
L 445.933884 111.109091 
L 456.181818 115.521442 
L 466.429752 111.109091 
L 476.677686 115.521442 
L 486.92562 115.521442 
L 497.173554 111.109091 
L 507.421488 111.109091 
L 517.669421 111.109091 
L 527.917355 115.521442 
L 538.165289 115.521442 
L 548.413223 115.521442 
L 558.661157 111.109091 
L 568.909091 111.109091 
L 579.157025 111.109091 
L 589.404959 115.521442 
L 599.652893 111.109091 
L 609.900826 111.109091 
L 620.14876 115.521442 
L 630.396694 111.109091 
L 640.644628 111.109091 
L 650.892562 111.109091 
L 661.140496 111.109091 
L 671.38843 111.109091 
L 681.636364 111.109091 
L 691.884298 111.109091 
L 702.132231 111.109091 
L 712.380165 111.109091 
L 722.628099 111.109091 
L 732.876033 111.109091 
L 743.123967 111.109091 
L 753.371901 115.521442 
L 763.619835 111.109091 
L 773.867769 111.109091 
L 784.115702 111.109091 
L 794.363636 111.109091 
L 804.61157 111.109091 
L 814.859504 111.109091 
L 825.107438 111.109091 
L 835.355372 111.109091 
L 845.603306 111.109091 
L 855.85124 111.109091 
L 866.099174 111.109091 
L 876.347107 119.933741 
L 886.595041 111.109091 
L 896.842975 111.109091 
L 907.090909 115.521442 
L 917.338843 111.109091 
L 927.586777 111.109091 
L 937.834711 111.109091 
L 948.082645 115.521442 
L 958.330579 115.521442 
L 968.578512 111.109091 
L 978.826446 111.109091 
L 989.07438 111.109091 
L 999.322314 111.109091 
L 1009.570248 111.109091 
L 1019.818182 111.109091 
L 1030.066116 111.109091 
L 1040.31405 111.109091 
L 1050.561983 111.109091 
L 1060.809917 115.521442 
L 1071.057851 111.109091 
L 1081.305785 115.521442 
L 1091.553719 111.109091 
L 1101.801653 111.109091 
L 1112.049587 111.109091 
L 1122.297521 111.109091 
L 1132.545455 111.109091 
L 1142.793388 111.109091 
L 1153.041322 115.521442 
L 1163.289256 115.521442 
L 1173.53719 111.109091 
L 1183.785124 115.521442 
L 1194.033058 111.109091 
L 1204.280992 111.109091 
L 1214.528926 111.109091 
L 1224.77686 111.109091 
L 1235.024793 111.109091 
L 1245.272727 111.109091 
" style="fill:none;stroke:#8c564b;stroke-linecap:square;stroke-width:1.5;"/>
   </g>
   <g id="line2d_19">
    <path clip-path="url(#p31a548c10b)" d="M 230.727273 181.706505 
L 240.975207 177.294153 
L 251.22314 150.820149 
L 261.471074 164.057151 
L 271.719008 146.407798 
L 281.966942 137.583095 
L 292.214876 150.820149 
L 302.46281 124.346093 
L 312.710744 133.170796 
L 322.958678 133.170796 
L 333.206612 141.995446 
L 343.454545 128.758444 
L 353.702479 115.521442 
L 363.950413 128.758444 
L 374.198347 119.933741 
L 384.446281 124.346093 
L 394.694215 115.521442 
L 404.942149 133.170796 
L 415.190083 133.170796 
L 425.438017 115.521442 
L 435.68595 111.109091 
L 445.933884 119.933741 
L 456.181818 124.346093 
L 466.429752 124.346093 
L 476.677686 133.170796 
L 486.92562 119.933741 
L 497.173554 111.109091 
L 507.421488 124.346093 
L 517.669421 124.346093 
L 527.917355 128.758444 
L 538.165289 137.583095 
L 548.413223 141.995446 
L 558.661157 111.109091 
L 568.909091 124.346093 
L 579.157025 111.109091 
L 589.404959 128.758444 
L 599.652893 119.933741 
L 609.900826 119.933741 
L 620.14876 119.933741 
L 630.396694 119.933741 
L 640.644628 115.521442 
L 650.892562 115.521442 
L 661.140496 115.521442 
L 671.38843 124.346093 
L 681.636364 111.109091 
L 691.884298 111.109091 
L 702.132231 124.346093 
L 712.380165 111.109091 
L 722.628099 111.109091 
L 732.876033 119.933741 
L 743.123967 111.109091 
L 753.371901 115.521442 
L 763.619835 115.521442 
L 773.867769 115.521442 
L 784.115702 115.521442 
L 794.363636 111.109091 
L 804.61157 119.933741 
L 814.859504 111.109091 
L 825.107438 115.521442 
L 835.355372 119.933741 
L 845.603306 115.521442 
L 855.85124 111.109091 
L 866.099174 119.933741 
L 876.347107 124.346093 
L 886.595041 128.758444 
L 896.842975 119.933741 
L 907.090909 111.109091 
L 917.338843 111.109091 
L 927.586777 111.109091 
L 937.834711 111.109091 
L 948.082645 111.109091 
L 958.330579 111.109091 
L 968.578512 111.109091 
L 978.826446 115.521442 
L 989.07438 115.521442 
L 999.322314 111.109091 
L 1009.570248 111.109091 
L 1019.818182 111.109091 
L 1030.066116 111.109091 
L 1040.31405 124.346093 
L 1050.561983 111.109091 
L 1060.809917 115.521442 
L 1071.057851 115.521442 
L 1081.305785 111.109091 
L 1091.553719 111.109091 
L 1101.801653 115.521442 
L 1112.049587 115.521442 
L 1122.297521 119.933741 
L 1132.545455 119.933741 
L 1142.793388 111.109091 
L 1153.041322 115.521442 
L 1163.289256 115.521442 
L 1173.53719 111.109091 
L 1183.785124 124.346093 
L 1194.033058 111.109091 
L 1204.280992 115.521442 
L 1214.528926 111.109091 
L 1224.77686 111.109091 
L 1235.024793 111.109091 
L 1245.272727 115.521442 
" style="fill:none;stroke:#e377c2;stroke-linecap:square;stroke-width:1.5;"/>
   </g>
   <g id="line2d_20">
    <path clip-path="url(#p31a548c10b)" d="M 230.727273 419.97275 
L 240.975207 375.84934 
L 251.22314 247.891567 
L 261.471074 265.540921 
L 271.719008 225.829862 
L 281.966942 217.005212 
L 292.214876 194.943507 
L 302.46281 274.365571 
L 312.710744 261.128569 
L 322.958678 212.59286 
L 333.206612 212.59286 
L 343.454545 208.180509 
L 353.702479 217.005212 
L 363.950413 217.005212 
L 374.198347 208.180509 
L 384.446281 186.118856 
L 394.694215 181.706505 
L 404.942149 177.294153 
L 415.190083 177.294153 
L 425.438017 172.881802 
L 435.68595 168.469503 
L 445.933884 146.407798 
L 456.181818 199.355858 
L 466.429752 146.407798 
L 476.677686 194.943507 
L 486.92562 159.6448 
L 497.173554 199.355858 
L 507.421488 159.6448 
L 517.669421 168.469503 
L 527.917355 150.820149 
L 538.165289 159.6448 
L 548.413223 155.232448 
L 558.661157 146.407798 
L 568.909091 159.6448 
L 579.157025 168.469503 
L 589.404959 168.469503 
L 599.652893 172.881802 
L 609.900826 150.820149 
L 620.14876 181.706505 
L 630.396694 177.294153 
L 640.644628 159.6448 
L 650.892562 155.232448 
L 661.140496 190.531155 
L 671.38843 164.057151 
L 681.636364 155.232448 
L 691.884298 150.820149 
L 702.132231 159.6448 
L 712.380165 150.820149 
L 722.628099 172.881802 
L 732.876033 164.057151 
L 743.123967 177.294153 
L 753.371901 186.118856 
L 763.619835 164.057151 
L 773.867769 150.820149 
L 784.115702 141.995446 
L 794.363636 150.820149 
L 804.61157 141.995446 
L 814.859504 172.881802 
L 825.107438 168.469503 
L 835.355372 137.583095 
L 845.603306 164.057151 
L 855.85124 133.170796 
L 866.099174 168.469503 
L 876.347107 141.995446 
L 886.595041 141.995446 
L 896.842975 137.583095 
L 907.090909 155.232448 
L 917.338843 137.583095 
L 927.586777 186.118856 
L 937.834711 164.057151 
L 948.082645 141.995446 
L 958.330579 150.820149 
L 968.578512 146.407798 
L 978.826446 172.881802 
L 989.07438 128.758444 
L 999.322314 141.995446 
L 1009.570248 146.407798 
L 1019.818182 146.407798 
L 1030.066116 133.170796 
L 1040.31405 137.583095 
L 1050.561983 146.407798 
L 1060.809917 133.170796 
L 1071.057851 141.995446 
L 1081.305785 150.820149 
L 1091.553719 164.057151 
L 1101.801653 133.170796 
L 1112.049587 155.232448 
L 1122.297521 150.820149 
L 1132.545455 133.170796 
L 1142.793388 133.170796 
L 1153.041322 168.469503 
L 1163.289256 146.407798 
L 1173.53719 137.583095 
L 1183.785124 137.583095 
L 1194.033058 133.170796 
L 1204.280992 146.407798 
L 1214.528926 137.583095 
L 1224.77686 128.758444 
L 1235.024793 137.583095 
L 1245.272727 164.057151 
" style="fill:none;stroke:#7f7f7f;stroke-linecap:square;stroke-width:1.5;"/>
   </g>
   <g id="line2d_21">
    <path clip-path="url(#p31a548c10b)" d="M 230.727273 442.034403 
L 240.975207 411.148047 
L 251.22314 230.242214 
L 261.471074 168.469503 
L 271.719008 225.829862 
L 281.966942 150.820149 
L 292.214876 164.057151 
L 302.46281 172.881802 
L 312.710744 155.232448 
L 322.958678 155.232448 
L 333.206612 155.232448 
L 343.454545 137.583095 
L 353.702479 128.758444 
L 363.950413 159.6448 
L 374.198347 168.469503 
L 384.446281 133.170796 
L 394.694215 155.232448 
L 404.942149 137.583095 
L 415.190083 155.232448 
L 425.438017 150.820149 
L 435.68595 128.758444 
L 445.933884 159.6448 
L 456.181818 119.933741 
L 466.429752 137.583095 
L 476.677686 124.346093 
L 486.92562 124.346093 
L 497.173554 119.933741 
L 507.421488 124.346093 
L 517.669421 146.407798 
L 527.917355 111.109091 
L 538.165289 124.346093 
L 548.413223 137.583095 
L 558.661157 124.346093 
L 568.909091 141.995446 
L 579.157025 128.758444 
L 589.404959 128.758444 
L 599.652893 141.995446 
L 609.900826 133.170796 
L 620.14876 124.346093 
L 630.396694 128.758444 
L 640.644628 119.933741 
L 650.892562 128.758444 
L 661.140496 133.170796 
L 671.38843 137.583095 
L 681.636364 115.521442 
L 691.884298 124.346093 
L 702.132231 128.758444 
L 712.380165 119.933741 
L 722.628099 119.933741 
L 732.876033 128.758444 
L 743.123967 115.521442 
L 753.371901 124.346093 
L 763.619835 111.109091 
L 773.867769 119.933741 
L 784.115702 115.521442 
L 794.363636 119.933741 
L 804.61157 124.346093 
L 814.859504 124.346093 
L 825.107438 124.346093 
L 835.355372 137.583095 
L 845.603306 115.521442 
L 855.85124 111.109091 
L 866.099174 119.933741 
L 876.347107 128.758444 
L 886.595041 124.346093 
L 896.842975 133.170796 
L 907.090909 128.758444 
L 917.338843 111.109091 
L 927.586777 119.933741 
L 937.834711 115.521442 
L 948.082645 124.346093 
L 958.330579 124.346093 
L 968.578512 115.521442 
L 978.826446 115.521442 
L 989.07438 111.109091 
L 999.322314 111.109091 
L 1009.570248 124.346093 
L 1019.818182 115.521442 
L 1030.066116 119.933741 
L 1040.31405 115.521442 
L 1050.561983 111.109091 
L 1060.809917 115.521442 
L 1071.057851 119.933741 
L 1081.305785 119.933741 
L 1091.553719 128.758444 
L 1101.801653 115.521442 
L 1112.049587 115.521442 
L 1122.297521 115.521442 
L 1132.545455 115.521442 
L 1142.793388 115.521442 
L 1153.041322 115.521442 
L 1163.289256 111.109091 
L 1173.53719 111.109091 
L 1183.785124 111.109091 
L 1194.033058 124.346093 
L 1204.280992 115.521442 
L 1214.528926 115.521442 
L 1224.77686 115.521442 
L 1235.024793 115.521442 
L 1245.272727 124.346093 
" style="fill:none;stroke:#bcbd22;stroke-linecap:square;stroke-width:1.5;"/>
   </g>
   <g id="patch_3">
    <path d="M 180 630 
L 180 86.4 
" style="fill:none;stroke:#000000;stroke-linecap:square;stroke-linejoin:miter;stroke-width:0.8;"/>
   </g>
   <g id="patch_4">
    <path d="M 1296 630 
L 1296 86.4 
" style="fill:none;stroke:#000000;stroke-linecap:square;stroke-linejoin:miter;stroke-width:0.8;"/>
   </g>
   <g id="patch_5">
    <path d="M 180 630 
L 1296 630 
" style="fill:none;stroke:#000000;stroke-linecap:square;stroke-linejoin:miter;stroke-width:0.8;"/>
   </g>
   <g id="patch_6">
    <path d="M 180 86.4 
L 1296 86.4 
" style="fill:none;stroke:#000000;stroke-linecap:square;stroke-linejoin:miter;stroke-width:0.8;"/>
   </g>
   <g id="text_13">
    <!-- Validation Accuracy -->
    <defs>
     <path d="M 28.609375 0 
L 0.78125 72.90625 
L 11.078125 72.90625 
L 34.1875 11.53125 
L 57.328125 72.90625 
L 67.578125 72.90625 
L 39.796875 0 
z
" id="DejaVuSans-86"/>
     <path d="M 34.28125 27.484375 
Q 23.390625 27.484375 19.1875 25 
Q 14.984375 22.515625 14.984375 16.5 
Q 14.984375 11.71875 18.140625 8.90625 
Q 21.296875 6.109375 26.703125 6.109375 
Q 34.1875 6.109375 38.703125 11.40625 
Q 43.21875 16.703125 43.21875 25.484375 
L 43.21875 27.484375 
z
M 52.203125 31.203125 
L 52.203125 0 
L 43.21875 0 
L 43.21875 8.296875 
Q 40.140625 3.328125 35.546875 0.953125 
Q 30.953125 -1.421875 24.3125 -1.421875 
Q 15.921875 -1.421875 10.953125 3.296875 
Q 6 8.015625 6 15.921875 
Q 6 25.140625 12.171875 29.828125 
Q 18.359375 34.515625 30.609375 34.515625 
L 43.21875 34.515625 
L 43.21875 35.40625 
Q 43.21875 41.609375 39.140625 45 
Q 35.0625 48.390625 27.6875 48.390625 
Q 23 48.390625 18.546875 47.265625 
Q 14.109375 46.140625 10.015625 43.890625 
L 10.015625 52.203125 
Q 14.9375 54.109375 19.578125 55.046875 
Q 24.21875 56 28.609375 56 
Q 40.484375 56 46.34375 49.84375 
Q 52.203125 43.703125 52.203125 31.203125 
z
" id="DejaVuSans-97"/>
     <path d="M 9.421875 75.984375 
L 18.40625 75.984375 
L 18.40625 0 
L 9.421875 0 
z
" id="DejaVuSans-108"/>
     <path d="M 9.421875 54.6875 
L 18.40625 54.6875 
L 18.40625 0 
L 9.421875 0 
z
M 9.421875 75.984375 
L 18.40625 75.984375 
L 18.40625 64.59375 
L 9.421875 64.59375 
z
" id="DejaVuSans-105"/>
     <path d="M 45.40625 46.390625 
L 45.40625 75.984375 
L 54.390625 75.984375 
L 54.390625 0 
L 45.40625 0 
L 45.40625 8.203125 
Q 42.578125 3.328125 38.25 0.953125 
Q 33.9375 -1.421875 27.875 -1.421875 
Q 17.96875 -1.421875 11.734375 6.484375 
Q 5.515625 14.40625 5.515625 27.296875 
Q 5.515625 40.1875 11.734375 48.09375 
Q 17.96875 56 27.875 56 
Q 33.9375 56 38.25 53.625 
Q 42.578125 51.265625 45.40625 46.390625 
z
M 14.796875 27.296875 
Q 14.796875 17.390625 18.875 11.75 
Q 22.953125 6.109375 30.078125 6.109375 
Q 37.203125 6.109375 41.296875 11.75 
Q 45.40625 17.390625 45.40625 27.296875 
Q 45.40625 37.203125 41.296875 42.84375 
Q 37.203125 48.484375 30.078125 48.484375 
Q 22.953125 48.484375 18.875 42.84375 
Q 14.796875 37.203125 14.796875 27.296875 
z
" id="DejaVuSans-100"/>
     <path d="M 18.3125 70.21875 
L 18.3125 54.6875 
L 36.8125 54.6875 
L 36.8125 47.703125 
L 18.3125 47.703125 
L 18.3125 18.015625 
Q 18.3125 11.328125 20.140625 9.421875 
Q 21.96875 7.515625 27.59375 7.515625 
L 36.8125 7.515625 
L 36.8125 0 
L 27.59375 0 
Q 17.1875 0 13.234375 3.875 
Q 9.28125 7.765625 9.28125 18.015625 
L 9.28125 47.703125 
L 2.6875 47.703125 
L 2.6875 54.6875 
L 9.28125 54.6875 
L 9.28125 70.21875 
z
" id="DejaVuSans-116"/>
     <path d="M 30.609375 48.390625 
Q 23.390625 48.390625 19.1875 42.75 
Q 14.984375 37.109375 14.984375 27.296875 
Q 14.984375 17.484375 19.15625 11.84375 
Q 23.34375 6.203125 30.609375 6.203125 
Q 37.796875 6.203125 41.984375 11.859375 
Q 46.1875 17.53125 46.1875 27.296875 
Q 46.1875 37.015625 41.984375 42.703125 
Q 37.796875 48.390625 30.609375 48.390625 
z
M 30.609375 56 
Q 42.328125 56 49.015625 48.375 
Q 55.71875 40.765625 55.71875 27.296875 
Q 55.71875 13.875 49.015625 6.21875 
Q 42.328125 -1.421875 30.609375 -1.421875 
Q 18.84375 -1.421875 12.171875 6.21875 
Q 5.515625 13.875 5.515625 27.296875 
Q 5.515625 40.765625 12.171875 48.375 
Q 18.84375 56 30.609375 56 
z
" id="DejaVuSans-111"/>
     <path d="M 54.890625 33.015625 
L 54.890625 0 
L 45.90625 0 
L 45.90625 32.71875 
Q 45.90625 40.484375 42.875 44.328125 
Q 39.84375 48.1875 33.796875 48.1875 
Q 26.515625 48.1875 22.3125 43.546875 
Q 18.109375 38.921875 18.109375 30.90625 
L 18.109375 0 
L 9.078125 0 
L 9.078125 54.6875 
L 18.109375 54.6875 
L 18.109375 46.1875 
Q 21.34375 51.125 25.703125 53.5625 
Q 30.078125 56 35.796875 56 
Q 45.21875 56 50.046875 50.171875 
Q 54.890625 44.34375 54.890625 33.015625 
z
" id="DejaVuSans-110"/>
     <path id="DejaVuSans-32"/>
     <path d="M 34.1875 63.1875 
L 20.796875 26.90625 
L 47.609375 26.90625 
z
M 28.609375 72.90625 
L 39.796875 72.90625 
L 67.578125 0 
L 57.328125 0 
L 50.6875 18.703125 
L 17.828125 18.703125 
L 11.1875 0 
L 0.78125 0 
z
" id="DejaVuSans-65"/>
     <path d="M 48.78125 52.59375 
L 48.78125 44.1875 
Q 44.96875 46.296875 41.140625 47.34375 
Q 37.3125 48.390625 33.40625 48.390625 
Q 24.65625 48.390625 19.8125 42.84375 
Q 14.984375 37.3125 14.984375 27.296875 
Q 14.984375 17.28125 19.8125 11.734375 
Q 24.65625 6.203125 33.40625 6.203125 
Q 37.3125 6.203125 41.140625 7.25 
Q 44.96875 8.296875 48.78125 10.40625 
L 48.78125 2.09375 
Q 45.015625 0.34375 40.984375 -0.53125 
Q 36.96875 -1.421875 32.421875 -1.421875 
Q 20.0625 -1.421875 12.78125 6.34375 
Q 5.515625 14.109375 5.515625 27.296875 
Q 5.515625 40.671875 12.859375 48.328125 
Q 20.21875 56 33.015625 56 
Q 37.15625 56 41.109375 55.140625 
Q 45.0625 54.296875 48.78125 52.59375 
z
" id="DejaVuSans-99"/>
     <path d="M 8.5 21.578125 
L 8.5 54.6875 
L 17.484375 54.6875 
L 17.484375 21.921875 
Q 17.484375 14.15625 20.5 10.265625 
Q 23.53125 6.390625 29.59375 6.390625 
Q 36.859375 6.390625 41.078125 11.03125 
Q 45.3125 15.671875 45.3125 23.6875 
L 45.3125 54.6875 
L 54.296875 54.6875 
L 54.296875 0 
L 45.3125 0 
L 45.3125 8.40625 
Q 42.046875 3.421875 37.71875 1 
Q 33.40625 -1.421875 27.6875 -1.421875 
Q 18.265625 -1.421875 13.375 4.4375 
Q 8.5 10.296875 8.5 21.578125 
z
M 31.109375 56 
z
" id="DejaVuSans-117"/>
     <path d="M 41.109375 46.296875 
Q 39.59375 47.171875 37.8125 47.578125 
Q 36.03125 48 33.890625 48 
Q 26.265625 48 22.1875 43.046875 
Q 18.109375 38.09375 18.109375 28.8125 
L 18.109375 0 
L 9.078125 0 
L 9.078125 54.6875 
L 18.109375 54.6875 
L 18.109375 46.1875 
Q 20.953125 51.171875 25.484375 53.578125 
Q 30.03125 56 36.53125 56 
Q 37.453125 56 38.578125 55.875 
Q 39.703125 55.765625 41.0625 55.515625 
z
" id="DejaVuSans-114"/>
     <path d="M 32.171875 -5.078125 
Q 28.375 -14.84375 24.75 -17.8125 
Q 21.140625 -20.796875 15.09375 -20.796875 
L 7.90625 -20.796875 
L 7.90625 -13.28125 
L 13.1875 -13.28125 
Q 16.890625 -13.28125 18.9375 -11.515625 
Q 21 -9.765625 23.484375 -3.21875 
L 25.09375 0.875 
L 2.984375 54.6875 
L 12.5 54.6875 
L 29.59375 11.921875 
L 46.6875 54.6875 
L 56.203125 54.6875 
z
" id="DejaVuSans-121"/>
    </defs>
    <g transform="translate(679.070625 80.4)scale(0.12 -0.12)">
     <use xlink:href="#DejaVuSans-86"/>
     <use x="60.658203" xlink:href="#DejaVuSans-97"/>
     <use x="121.9375" xlink:href="#DejaVuSans-108"/>
     <use x="149.720703" xlink:href="#DejaVuSans-105"/>
     <use x="177.503906" xlink:href="#DejaVuSans-100"/>
     <use x="240.980469" xlink:href="#DejaVuSans-97"/>
     <use x="302.259766" xlink:href="#DejaVuSans-116"/>
     <use x="341.46875" xlink:href="#DejaVuSans-105"/>
     <use x="369.251953" xlink:href="#DejaVuSans-111"/>
     <use x="430.433594" xlink:href="#DejaVuSans-110"/>
     <use x="493.8125" xlink:href="#DejaVuSans-32"/>
     <use x="525.599609" xlink:href="#DejaVuSans-65"/>
     <use x="592.257812" xlink:href="#DejaVuSans-99"/>
     <use x="647.238281" xlink:href="#DejaVuSans-99"/>
     <use x="702.21875" xlink:href="#DejaVuSans-117"/>
     <use x="765.597656" xlink:href="#DejaVuSans-114"/>
     <use x="806.710938" xlink:href="#DejaVuSans-97"/>
     <use x="867.990234" xlink:href="#DejaVuSans-99"/>
     <use x="922.970703" xlink:href="#DejaVuSans-121"/>
    </g>
   </g>
   <g id="legend_1">
    <g id="patch_7">
     <path d="M 1188.804688 425.751562 
L 1289 425.751562 
Q 1291 425.751562 1291 423.751562 
L 1291 292.648438 
Q 1291 290.648438 1289 290.648438 
L 1188.804688 290.648438 
Q 1186.804688 290.648438 1186.804688 292.648438 
L 1186.804688 423.751562 
Q 1186.804688 425.751562 1188.804688 425.751562 
z
" style="fill:#ffffff;opacity:0.8;stroke:#cccccc;stroke-linejoin:miter;"/>
    </g>
    <g id="line2d_22">
     <path d="M 1190.804688 298.746875 
L 1210.804688 298.746875 
" style="fill:none;stroke:#1f77b4;stroke-linecap:square;stroke-width:1.5;"/>
    </g>
    <g id="line2d_23"/>
    <g id="text_14">
     <!-- DenseNet121 -->
     <defs>
      <path d="M 19.671875 64.796875 
L 19.671875 8.109375 
L 31.59375 8.109375 
Q 46.6875 8.109375 53.6875 14.9375 
Q 60.6875 21.78125 60.6875 36.53125 
Q 60.6875 51.171875 53.6875 57.984375 
Q 46.6875 64.796875 31.59375 64.796875 
z
M 9.8125 72.90625 
L 30.078125 72.90625 
Q 51.265625 72.90625 61.171875 64.09375 
Q 71.09375 55.28125 71.09375 36.53125 
Q 71.09375 17.671875 61.125 8.828125 
Q 51.171875 0 30.078125 0 
L 9.8125 0 
z
" id="DejaVuSans-68"/>
      <path d="M 56.203125 29.59375 
L 56.203125 25.203125 
L 14.890625 25.203125 
Q 15.484375 15.921875 20.484375 11.0625 
Q 25.484375 6.203125 34.421875 6.203125 
Q 39.59375 6.203125 44.453125 7.46875 
Q 49.3125 8.734375 54.109375 11.28125 
L 54.109375 2.78125 
Q 49.265625 0.734375 44.1875 -0.34375 
Q 39.109375 -1.421875 33.890625 -1.421875 
Q 20.796875 -1.421875 13.15625 6.1875 
Q 5.515625 13.8125 5.515625 26.8125 
Q 5.515625 40.234375 12.765625 48.109375 
Q 20.015625 56 32.328125 56 
Q 43.359375 56 49.78125 48.890625 
Q 56.203125 41.796875 56.203125 29.59375 
z
M 47.21875 32.234375 
Q 47.125 39.59375 43.09375 43.984375 
Q 39.0625 48.390625 32.421875 48.390625 
Q 24.90625 48.390625 20.390625 44.140625 
Q 15.875 39.890625 15.1875 32.171875 
z
" id="DejaVuSans-101"/>
      <path d="M 44.28125 53.078125 
L 44.28125 44.578125 
Q 40.484375 46.53125 36.375 47.5 
Q 32.28125 48.484375 27.875 48.484375 
Q 21.1875 48.484375 17.84375 46.4375 
Q 14.5 44.390625 14.5 40.28125 
Q 14.5 37.15625 16.890625 35.375 
Q 19.28125 33.59375 26.515625 31.984375 
L 29.59375 31.296875 
Q 39.15625 29.25 43.1875 25.515625 
Q 47.21875 21.78125 47.21875 15.09375 
Q 47.21875 7.46875 41.1875 3.015625 
Q 35.15625 -1.421875 24.609375 -1.421875 
Q 20.21875 -1.421875 15.453125 -0.5625 
Q 10.6875 0.296875 5.421875 2 
L 5.421875 11.28125 
Q 10.40625 8.6875 15.234375 7.390625 
Q 20.0625 6.109375 24.8125 6.109375 
Q 31.15625 6.109375 34.5625 8.28125 
Q 37.984375 10.453125 37.984375 14.40625 
Q 37.984375 18.0625 35.515625 20.015625 
Q 33.0625 21.96875 24.703125 23.78125 
L 21.578125 24.515625 
Q 13.234375 26.265625 9.515625 29.90625 
Q 5.8125 33.546875 5.8125 39.890625 
Q 5.8125 47.609375 11.28125 51.796875 
Q 16.75 56 26.8125 56 
Q 31.78125 56 36.171875 55.265625 
Q 40.578125 54.546875 44.28125 53.078125 
z
" id="DejaVuSans-115"/>
      <path d="M 9.8125 72.90625 
L 23.09375 72.90625 
L 55.421875 11.921875 
L 55.421875 72.90625 
L 64.984375 72.90625 
L 64.984375 0 
L 51.703125 0 
L 19.390625 60.984375 
L 19.390625 0 
L 9.8125 0 
z
" id="DejaVuSans-78"/>
     </defs>
     <g transform="translate(1218.804688 302.246875)scale(0.1 -0.1)">
      <use xlink:href="#DejaVuSans-68"/>
      <use x="77.001953" xlink:href="#DejaVuSans-101"/>
      <use x="138.525391" xlink:href="#DejaVuSans-110"/>
      <use x="201.904297" xlink:href="#DejaVuSans-115"/>
      <use x="254.003906" xlink:href="#DejaVuSans-101"/>
      <use x="315.527344" xlink:href="#DejaVuSans-78"/>
      <use x="390.332031" xlink:href="#DejaVuSans-101"/>
      <use x="451.855469" xlink:href="#DejaVuSans-116"/>
      <use x="491.064453" xlink:href="#DejaVuSans-49"/>
      <use x="554.6875" xlink:href="#DejaVuSans-50"/>
      <use x="618.310547" xlink:href="#DejaVuSans-49"/>
     </g>
    </g>
    <g id="line2d_24">
     <path d="M 1190.804688 313.425 
L 1210.804688 313.425 
" style="fill:none;stroke:#ff7f0e;stroke-linecap:square;stroke-width:1.5;"/>
    </g>
    <g id="line2d_25"/>
    <g id="text_15">
     <!-- VGG19 -->
     <defs>
      <path d="M 59.515625 10.40625 
L 59.515625 29.984375 
L 43.40625 29.984375 
L 43.40625 38.09375 
L 69.28125 38.09375 
L 69.28125 6.78125 
Q 63.578125 2.734375 56.6875 0.65625 
Q 49.8125 -1.421875 42 -1.421875 
Q 24.90625 -1.421875 15.25 8.5625 
Q 5.609375 18.5625 5.609375 36.375 
Q 5.609375 54.25 15.25 64.234375 
Q 24.90625 74.21875 42 74.21875 
Q 49.125 74.21875 55.546875 72.453125 
Q 61.96875 70.703125 67.390625 67.28125 
L 67.390625 56.78125 
Q 61.921875 61.421875 55.765625 63.765625 
Q 49.609375 66.109375 42.828125 66.109375 
Q 29.4375 66.109375 22.71875 58.640625 
Q 16.015625 51.171875 16.015625 36.375 
Q 16.015625 21.625 22.71875 14.15625 
Q 29.4375 6.6875 42.828125 6.6875 
Q 48.046875 6.6875 52.140625 7.59375 
Q 56.25 8.5 59.515625 10.40625 
z
" id="DejaVuSans-71"/>
     </defs>
     <g transform="translate(1218.804688 316.925)scale(0.1 -0.1)">
      <use xlink:href="#DejaVuSans-86"/>
      <use x="68.408203" xlink:href="#DejaVuSans-71"/>
      <use x="145.898438" xlink:href="#DejaVuSans-71"/>
      <use x="223.388672" xlink:href="#DejaVuSans-49"/>
      <use x="287.011719" xlink:href="#DejaVuSans-57"/>
     </g>
    </g>
    <g id="line2d_26">
     <path d="M 1190.804688 328.103125 
L 1210.804688 328.103125 
" style="fill:none;stroke:#2ca02c;stroke-linecap:square;stroke-width:1.5;"/>
    </g>
    <g id="line2d_27"/>
    <g id="text_16">
     <!-- ResNet50V2 -->
     <defs>
      <path d="M 44.390625 34.1875 
Q 47.5625 33.109375 50.5625 29.59375 
Q 53.5625 26.078125 56.59375 19.921875 
L 66.609375 0 
L 56 0 
L 46.6875 18.703125 
Q 43.0625 26.03125 39.671875 28.421875 
Q 36.28125 30.8125 30.421875 30.8125 
L 19.671875 30.8125 
L 19.671875 0 
L 9.8125 0 
L 9.8125 72.90625 
L 32.078125 72.90625 
Q 44.578125 72.90625 50.734375 67.671875 
Q 56.890625 62.453125 56.890625 51.90625 
Q 56.890625 45.015625 53.6875 40.46875 
Q 50.484375 35.9375 44.390625 34.1875 
z
M 19.671875 64.796875 
L 19.671875 38.921875 
L 32.078125 38.921875 
Q 39.203125 38.921875 42.84375 42.21875 
Q 46.484375 45.515625 46.484375 51.90625 
Q 46.484375 58.296875 42.84375 61.546875 
Q 39.203125 64.796875 32.078125 64.796875 
z
" id="DejaVuSans-82"/>
     </defs>
     <g transform="translate(1218.804688 331.603125)scale(0.1 -0.1)">
      <use xlink:href="#DejaVuSans-82"/>
      <use x="64.982422" xlink:href="#DejaVuSans-101"/>
      <use x="126.505859" xlink:href="#DejaVuSans-115"/>
      <use x="178.605469" xlink:href="#DejaVuSans-78"/>
      <use x="253.410156" xlink:href="#DejaVuSans-101"/>
      <use x="314.933594" xlink:href="#DejaVuSans-116"/>
      <use x="354.142578" xlink:href="#DejaVuSans-53"/>
      <use x="417.765625" xlink:href="#DejaVuSans-48"/>
      <use x="481.388672" xlink:href="#DejaVuSans-86"/>
      <use x="549.796875" xlink:href="#DejaVuSans-50"/>
     </g>
    </g>
    <g id="line2d_28">
     <path d="M 1190.804688 342.78125 
L 1210.804688 342.78125 
" style="fill:none;stroke:#d62728;stroke-linecap:square;stroke-width:1.5;"/>
    </g>
    <g id="line2d_29"/>
    <g id="text_17">
     <!-- ResNet50 -->
     <g transform="translate(1218.804688 346.28125)scale(0.1 -0.1)">
      <use xlink:href="#DejaVuSans-82"/>
      <use x="64.982422" xlink:href="#DejaVuSans-101"/>
      <use x="126.505859" xlink:href="#DejaVuSans-115"/>
      <use x="178.605469" xlink:href="#DejaVuSans-78"/>
      <use x="253.410156" xlink:href="#DejaVuSans-101"/>
      <use x="314.933594" xlink:href="#DejaVuSans-116"/>
      <use x="354.142578" xlink:href="#DejaVuSans-53"/>
      <use x="417.765625" xlink:href="#DejaVuSans-48"/>
     </g>
    </g>
    <g id="line2d_30">
     <path d="M 1190.804688 357.459375 
L 1210.804688 357.459375 
" style="fill:none;stroke:#9467bd;stroke-linecap:square;stroke-width:1.5;"/>
    </g>
    <g id="line2d_31"/>
    <g id="text_18">
     <!-- InceptionV3 -->
     <defs>
      <path d="M 9.8125 72.90625 
L 19.671875 72.90625 
L 19.671875 0 
L 9.8125 0 
z
" id="DejaVuSans-73"/>
      <path d="M 18.109375 8.203125 
L 18.109375 -20.796875 
L 9.078125 -20.796875 
L 9.078125 54.6875 
L 18.109375 54.6875 
L 18.109375 46.390625 
Q 20.953125 51.265625 25.265625 53.625 
Q 29.59375 56 35.59375 56 
Q 45.5625 56 51.78125 48.09375 
Q 58.015625 40.1875 58.015625 27.296875 
Q 58.015625 14.40625 51.78125 6.484375 
Q 45.5625 -1.421875 35.59375 -1.421875 
Q 29.59375 -1.421875 25.265625 0.953125 
Q 20.953125 3.328125 18.109375 8.203125 
z
M 48.6875 27.296875 
Q 48.6875 37.203125 44.609375 42.84375 
Q 40.53125 48.484375 33.40625 48.484375 
Q 26.265625 48.484375 22.1875 42.84375 
Q 18.109375 37.203125 18.109375 27.296875 
Q 18.109375 17.390625 22.1875 11.75 
Q 26.265625 6.109375 33.40625 6.109375 
Q 40.53125 6.109375 44.609375 11.75 
Q 48.6875 17.390625 48.6875 27.296875 
z
" id="DejaVuSans-112"/>
      <path d="M 40.578125 39.3125 
Q 47.65625 37.796875 51.625 33 
Q 55.609375 28.21875 55.609375 21.1875 
Q 55.609375 10.40625 48.1875 4.484375 
Q 40.765625 -1.421875 27.09375 -1.421875 
Q 22.515625 -1.421875 17.65625 -0.515625 
Q 12.796875 0.390625 7.625 2.203125 
L 7.625 11.71875 
Q 11.71875 9.328125 16.59375 8.109375 
Q 21.484375 6.890625 26.8125 6.890625 
Q 36.078125 6.890625 40.9375 10.546875 
Q 45.796875 14.203125 45.796875 21.1875 
Q 45.796875 27.640625 41.28125 31.265625 
Q 36.765625 34.90625 28.71875 34.90625 
L 20.21875 34.90625 
L 20.21875 43.015625 
L 29.109375 43.015625 
Q 36.375 43.015625 40.234375 45.921875 
Q 44.09375 48.828125 44.09375 54.296875 
Q 44.09375 59.90625 40.109375 62.90625 
Q 36.140625 65.921875 28.71875 65.921875 
Q 24.65625 65.921875 20.015625 65.03125 
Q 15.375 64.15625 9.8125 62.3125 
L 9.8125 71.09375 
Q 15.4375 72.65625 20.34375 73.4375 
Q 25.25 74.21875 29.59375 74.21875 
Q 40.828125 74.21875 47.359375 69.109375 
Q 53.90625 64.015625 53.90625 55.328125 
Q 53.90625 49.265625 50.4375 45.09375 
Q 46.96875 40.921875 40.578125 39.3125 
z
" id="DejaVuSans-51"/>
     </defs>
     <g transform="translate(1218.804688 360.959375)scale(0.1 -0.1)">
      <use xlink:href="#DejaVuSans-73"/>
      <use x="29.492188" xlink:href="#DejaVuSans-110"/>
      <use x="92.871094" xlink:href="#DejaVuSans-99"/>
      <use x="147.851562" xlink:href="#DejaVuSans-101"/>
      <use x="209.375" xlink:href="#DejaVuSans-112"/>
      <use x="272.851562" xlink:href="#DejaVuSans-116"/>
      <use x="312.060547" xlink:href="#DejaVuSans-105"/>
      <use x="339.84375" xlink:href="#DejaVuSans-111"/>
      <use x="401.025391" xlink:href="#DejaVuSans-110"/>
      <use x="464.404297" xlink:href="#DejaVuSans-86"/>
      <use x="532.8125" xlink:href="#DejaVuSans-51"/>
     </g>
    </g>
    <g id="line2d_32">
     <path d="M 1190.804688 372.1375 
L 1210.804688 372.1375 
" style="fill:none;stroke:#8c564b;stroke-linecap:square;stroke-width:1.5;"/>
    </g>
    <g id="line2d_33"/>
    <g id="text_19">
     <!-- MobileNet -->
     <defs>
      <path d="M 9.8125 72.90625 
L 24.515625 72.90625 
L 43.109375 23.296875 
L 61.8125 72.90625 
L 76.515625 72.90625 
L 76.515625 0 
L 66.890625 0 
L 66.890625 64.015625 
L 48.09375 14.015625 
L 38.1875 14.015625 
L 19.390625 64.015625 
L 19.390625 0 
L 9.8125 0 
z
" id="DejaVuSans-77"/>
      <path d="M 48.6875 27.296875 
Q 48.6875 37.203125 44.609375 42.84375 
Q 40.53125 48.484375 33.40625 48.484375 
Q 26.265625 48.484375 22.1875 42.84375 
Q 18.109375 37.203125 18.109375 27.296875 
Q 18.109375 17.390625 22.1875 11.75 
Q 26.265625 6.109375 33.40625 6.109375 
Q 40.53125 6.109375 44.609375 11.75 
Q 48.6875 17.390625 48.6875 27.296875 
z
M 18.109375 46.390625 
Q 20.953125 51.265625 25.265625 53.625 
Q 29.59375 56 35.59375 56 
Q 45.5625 56 51.78125 48.09375 
Q 58.015625 40.1875 58.015625 27.296875 
Q 58.015625 14.40625 51.78125 6.484375 
Q 45.5625 -1.421875 35.59375 -1.421875 
Q 29.59375 -1.421875 25.265625 0.953125 
Q 20.953125 3.328125 18.109375 8.203125 
L 18.109375 0 
L 9.078125 0 
L 9.078125 75.984375 
L 18.109375 75.984375 
z
" id="DejaVuSans-98"/>
     </defs>
     <g transform="translate(1218.804688 375.6375)scale(0.1 -0.1)">
      <use xlink:href="#DejaVuSans-77"/>
      <use x="86.279297" xlink:href="#DejaVuSans-111"/>
      <use x="147.460938" xlink:href="#DejaVuSans-98"/>
      <use x="210.9375" xlink:href="#DejaVuSans-105"/>
      <use x="238.720703" xlink:href="#DejaVuSans-108"/>
      <use x="266.503906" xlink:href="#DejaVuSans-101"/>
      <use x="328.027344" xlink:href="#DejaVuSans-78"/>
      <use x="402.832031" xlink:href="#DejaVuSans-101"/>
      <use x="464.355469" xlink:href="#DejaVuSans-116"/>
     </g>
    </g>
    <g id="line2d_34">
     <path d="M 1190.804688 386.815625 
L 1210.804688 386.815625 
" style="fill:none;stroke:#e377c2;stroke-linecap:square;stroke-width:1.5;"/>
    </g>
    <g id="line2d_35"/>
    <g id="text_20">
     <!-- Xception -->
     <defs>
      <path d="M 6.296875 72.90625 
L 16.890625 72.90625 
L 35.015625 45.796875 
L 53.21875 72.90625 
L 63.8125 72.90625 
L 40.375 37.890625 
L 65.375 0 
L 54.78125 0 
L 34.28125 31 
L 13.625 0 
L 2.984375 0 
L 29 38.921875 
z
" id="DejaVuSans-88"/>
     </defs>
     <g transform="translate(1218.804688 390.315625)scale(0.1 -0.1)">
      <use xlink:href="#DejaVuSans-88"/>
      <use x="68.505859" xlink:href="#DejaVuSans-99"/>
      <use x="123.486328" xlink:href="#DejaVuSans-101"/>
      <use x="185.009766" xlink:href="#DejaVuSans-112"/>
      <use x="248.486328" xlink:href="#DejaVuSans-116"/>
      <use x="287.695312" xlink:href="#DejaVuSans-105"/>
      <use x="315.478516" xlink:href="#DejaVuSans-111"/>
      <use x="376.660156" xlink:href="#DejaVuSans-110"/>
     </g>
    </g>
    <g id="line2d_36">
     <path d="M 1190.804688 401.49375 
L 1210.804688 401.49375 
" style="fill:none;stroke:#7f7f7f;stroke-linecap:square;stroke-width:1.5;"/>
    </g>
    <g id="line2d_37"/>
    <g id="text_21">
     <!-- default -->
     <defs>
      <path d="M 37.109375 75.984375 
L 37.109375 68.5 
L 28.515625 68.5 
Q 23.6875 68.5 21.796875 66.546875 
Q 19.921875 64.59375 19.921875 59.515625 
L 19.921875 54.6875 
L 34.71875 54.6875 
L 34.71875 47.703125 
L 19.921875 47.703125 
L 19.921875 0 
L 10.890625 0 
L 10.890625 47.703125 
L 2.296875 47.703125 
L 2.296875 54.6875 
L 10.890625 54.6875 
L 10.890625 58.5 
Q 10.890625 67.625 15.140625 71.796875 
Q 19.390625 75.984375 28.609375 75.984375 
z
" id="DejaVuSans-102"/>
     </defs>
     <g transform="translate(1218.804688 404.99375)scale(0.1 -0.1)">
      <use xlink:href="#DejaVuSans-100"/>
      <use x="63.476562" xlink:href="#DejaVuSans-101"/>
      <use x="125" xlink:href="#DejaVuSans-102"/>
      <use x="160.205078" xlink:href="#DejaVuSans-97"/>
      <use x="221.484375" xlink:href="#DejaVuSans-117"/>
      <use x="284.863281" xlink:href="#DejaVuSans-108"/>
      <use x="312.646484" xlink:href="#DejaVuSans-116"/>
     </g>
    </g>
    <g id="line2d_38">
     <path d="M 1190.804688 416.171875 
L 1210.804688 416.171875 
" style="fill:none;stroke:#bcbd22;stroke-linecap:square;stroke-width:1.5;"/>
    </g>
    <g id="line2d_39"/>
    <g id="text_22">
     <!-- VGG16 -->
     <g transform="translate(1218.804688 419.671875)scale(0.1 -0.1)">
      <use xlink:href="#DejaVuSans-86"/>
      <use x="68.408203" xlink:href="#DejaVuSans-71"/>
      <use x="145.898438" xlink:href="#DejaVuSans-71"/>
      <use x="223.388672" xlink:href="#DejaVuSans-49"/>
      <use x="287.011719" xlink:href="#DejaVuSans-54"/>
     </g>
    </g>
   </g>
  </g>
 </g>
 <defs>
  <clipPath id="p31a548c10b">
   <rect height="543.6" width="1116" x="180" y="86.4"/>
  </clipPath>
 </defs>
</svg>
